<?xml version="1.0" encoding="utf-8"?>
<!-- Generator: Adobe Illustrator 17.0.0, SVG Export Plug-In . SVG Version: 6.00 Build 0)  -->
<!DOCTYPE svg PUBLIC "-//W3C//DTD SVG 1.1//EN" "http://www.w3.org/Graphics/SVG/1.1/DTD/svg11.dtd">
<svg version="1.1" id="Layer_1" xmlns="http://www.w3.org/2000/svg" xmlns:xlink="http://www.w3.org/1999/xlink" x="0px" y="0px"
	 width="135px" height="135.001px" viewBox="0 0 135 135.001" enable-background="new 0 0 135 135.001" xml:space="preserve">
<g>
	<g>
		<g>
			<path fill="#010202" d="M32.031,101.153c-18.164-19.135-17.879-49.472,0.887-68.235c17.562-17.564,45.264-18.938,64.43-4.147
				l12.045-1.721l1.6-11.203C84.484-6.504,44.7-5.217,19.741,19.742c-26.018,26.018-26.312,68.145-0.92,94.549l1.641-11.485
				L32.031,101.153z"/>
		</g>
		<g>
			<path fill="#010202" d="M116.179,20.71l-1.641,11.485l-11.57,1.652c18.166,19.135,17.881,49.472-0.885,68.235
				c-17.562,17.563-45.264,18.938-64.43,4.147l-12.045,1.721l-1.6,11.202c26.508,22.352,66.291,21.065,91.248-3.896
				C141.277,89.242,141.572,47.116,116.179,20.71z"/>
		</g>
	</g>
	<g>
		<g>
			<defs>
				<rect id="SVGID_1_" x="55.808" y="41.63" width="28" height="52"/>
			</defs>
			<clipPath id="SVGID_2_">
				<use xlink:href="#SVGID_1_"  overflow="visible"/>
			</clipPath>
		</g>
		<g>
			<path fill-rule="evenodd" clip-rule="evenodd" fill="#E5283C" d="M60.833,73.435c-0.912-1.163-0.623-2.532-0.635-3.841
				c-0.022-2.174-0.006-4.348-0.006-6.849c-0.586,0.257-1.002,0.455-1.432,0.621c-0.215,0.084-0.455,0.109-0.682,0.166
				c-0.91,0.229-4.338,1.137-5.164,1.288c-0.836,0.155-1.338-0.318-1.764-0.934c-0.795-1.159-0.092-3.057,1.238-3.449
				c1.303-0.381,2.586-0.821,3.871-1.255c1.133-0.382,2.312-0.678,3.373-1.21c2.219-1.11,4.545-0.409,6.814-0.532
				c2.34-0.125,4.701-0.098,7.041,0.048c0.871,0.055,1.709,0.63,2.562,0.97c0.119,0.048,0.23,0.115,0.35,0.154
				c1.172,0.407,2.342,0.82,3.518,1.208c0.736,0.24,1.473,0.475,2.223,0.648c1.057,0.244,1.742,2.16,1.06,3.043
				c-1.211,1.568-2.17,1.699-4.232,0.744c-0.75-0.349-3.184-1.082-3.592-1.2c-0.342-0.099-0.717-0.092-1.201-0.146
				c0,1.727,0.002,3.352,0,4.977c-0.002,1.054-0.01,2.11-0.014,3.164c-0.01,1.684-0.43,2.152-2.154,2.2
				c-1.766,0.048-3.539,0.015-5.309,0.017c-1.633,0-3.266-0.012-4.9,0.002c-0.33,0.003-0.658,0.095-0.988,0.145L60.833,73.435z"/>
		</g>
		<g>
			<path fill-rule="evenodd" clip-rule="evenodd" fill="#E5283C" d="M67.146,55.594c-4.033,0.294-6.844-3.312-7.031-6.539
				c-0.26-4.536,3.629-7.497,6.885-7.449c3.775,0.058,7.104,2.897,7.16,6.905C74.212,52.294,71.456,55.681,67.146,55.594z"/>
		</g>
		<g>
			<path fill-rule="evenodd" clip-rule="evenodd" fill="#E8515D" d="M60.812,73.413c-0.045,0.675,0.477,2.509,0.555,2.8
				c0.238,0.901,0.516,1.791,0.744,2.695c0.176,0.683,0.584,1.478,0.383,2.044c-0.328,0.924-1.064,1.703-1.574,2.457
				c0.359,0.606,0.691,1.229,1.082,1.808c0.52,0.772,1.125,1.489,1.621,2.274c0.521,0.828,0.957,1.711,1.428,2.572
				c0.18,0.327,0.58,0.822,0.48,0.963c-0.443,0.641-1.941,2.383-2.268,2.604c-1.631,1.097-3.225,0.527-3.779-1.325
				c-0.008-0.026-1.76-2.906-2.457-4.001c-0.492-0.772-1.203-1.413-1.639-2.209c-0.641-1.168-1.291-2.466-0.727-3.801
				c0.512-1.214,1.315-2.308,2.02-3.436c0.5-0.797,1.059-1.555,1.576-2.34c0.676-1.027,1.326-2.069,2.021-3.082
				c0.059-0.087,0.363-0.007,0.553-0.004C60.833,73.435,60.812,73.413,60.812,73.413z"/>
		</g>
		<g>
			<path fill-rule="evenodd" clip-rule="evenodd" fill="#E8515D" d="M74.027,73.247c0.482,0.731,0.969,1.458,1.441,2.196
				c0.461,0.724,0.895,1.467,1.361,2.187c0.539,0.828,1.115,1.635,1.654,2.462c0.398,0.608,0.744,1.254,1.156,1.852
				c0.353,0.513,0.158,2.583-0.232,3.126c-0.539,0.753-0.973,1.582-1.469,2.368c-0.535,0.845-1.098,1.673-1.631,2.518
				c-0.486,0.772-0.908,1.589-1.443,2.324c-0.49,0.675-0.98,1.521-1.674,1.83c-0.926,0.408-1.826-0.165-2.678-0.772
				c-0.75-0.534-1.275-1.144-1.736-2.243c1.471-2.437,3.055-5.057,4.664-7.722c-0.492-0.813-1.467-1.735-1.547-2.732
				c-0.098-1.164,0.584-2.391,0.934-3.59c0.035-0.122,0.117-0.23,0.149-0.354c0.269-1.094,0.533-2.188,0.797-3.281
				C73.859,73.359,73.943,73.303,74.027,73.247z"/>
		</g>
		<g>
			<defs>
				<path id="SVGID_3_" d="M60.833,73.435c-0.912-1.163-0.623-2.532-0.635-3.841c-0.022-2.174-0.006-4.348-0.006-6.849
					c-0.586,0.257-1.002,0.455-1.432,0.621c-0.215,0.084-0.455,0.109-0.682,0.166c-0.91,0.229-4.338,1.137-5.164,1.288
					c-0.836,0.155-1.338-0.318-1.764-0.934c-0.795-1.159-0.092-3.057,1.238-3.449c1.303-0.381,2.586-0.821,3.871-1.255
					c1.133-0.382,2.312-0.678,3.373-1.21c2.219-1.11,4.545-0.409,6.814-0.532c2.34-0.125,4.701-0.098,7.041,0.048
					c0.871,0.055,1.709,0.63,2.562,0.97c0.119,0.048,0.23,0.115,0.35,0.154c1.172,0.407,2.342,0.82,3.518,1.208
					c0.736,0.24,1.473,0.475,2.223,0.648c1.057,0.244,1.742,2.16,1.06,3.043c-1.211,1.568-2.17,1.699-4.232,0.744
					c-0.75-0.349-3.184-1.082-3.592-1.2c-0.342-0.099-0.717-0.092-1.201-0.146c0,1.727,0.002,3.352,0,4.977
					c-0.002,1.054-0.01,2.11-0.014,3.164c-0.01,1.684-0.43,2.152-2.154,2.2c-1.766,0.048-3.539,0.015-5.309,0.017
					c-1.633,0-3.266-0.012-4.9,0.002c-0.33,0.003-0.658,0.095-0.988,0.145L60.833,73.435z"/>
			</defs>
			<clipPath id="SVGID_4_">
				<use xlink:href="#SVGID_3_"  overflow="visible"/>
			</clipPath>
			<g clip-path="url(#SVGID_4_)">
				<path fill="#E8515D" d="M28.363,76.37c0,0,23.902-12.842,27.453-14.374c3.547-1.533,7.643-0.19,7.725,4.567l5.516-4.773
					c0,0,3.08-3.542,8.242-0.444c5.164,3.098,6.537,1.724,8.795,0.271c2.258-1.451,19.127-14.419,20.291-15.952l-1.553,50.965H32.05
					L28.363,76.37z"/>
			</g>
		</g>
	</g>
</g>
</svg>
