<?xml version="1.0" encoding="utf-8"?>
<!-- Generator: Adobe Illustrator 17.0.0, SVG Export Plug-In . SVG Version: 6.00 Build 0)  -->
<!DOCTYPE svg PUBLIC "-//W3C//DTD SVG 1.1//EN" "http://www.w3.org/Graphics/SVG/1.1/DTD/svg11.dtd">
<svg version="1.1" id="Layer_1" xmlns="http://www.w3.org/2000/svg" xmlns:xlink="http://www.w3.org/1999/xlink" x="0px" y="0px"
	 width="135px" height="135.001px" viewBox="0 0 135 135.001" enable-background="new 0 0 135 135.001" xml:space="preserve">
<g>
	<g>
		<rect x="30.808" y="53.63" fill="#E5283C" width="4" height="33"/>
	</g>
	<g>
		<rect x="96.808" y="45.63" fill="#E5283C" width="6" height="41"/>
	</g>
	<g>
		<rect x="33.808" y="72.63" fill="#E8515D" width="63" height="4"/>
	</g>
	<g>
		<path fill="#E5283C" d="M94.808,69.465c0,0.644-0.522,1.165-1.164,1.165H38.972c-0.643,0-1.164-0.521-1.164-1.165v-9.67
			c0-0.644,0.521-1.165,1.164-1.165h54.672c0.643,0,1.164,0.521,1.164,1.165V69.465z"/>
	</g>
	<g>
		<path fill="#E5283C" d="M93.468,57.63c0.64,0,1.34-0.719,1.34-1.357v-5.5c0-0.641-0.607-1.134-1.244-1.214
			c0,0-6.39-1.929-13.784,8.071H93.468z"/>
	</g>
	<g>
		<defs>
			<rect id="SVGID_1_" x="30.808" y="53.63" width="4" height="33"/>
		</defs>
		<clipPath id="SVGID_2_">
			<use xlink:href="#SVGID_1_"  overflow="visible"/>
		</clipPath>
		<g clip-path="url(#SVGID_2_)">
			<path fill="#E8515D" d="M27.706,75.402c0,0,23.901-12.824,27.452-14.357c3.548-1.533,7.644-0.184,7.726,4.574l5.516-4.768
				c0,0,3.08-3.541,8.242-0.443c5.163,3.098,6.536,1.725,8.795,0.273c2.258-1.451,19.126-14.451,20.291-15.984l-1.553,50.934H31.393
				L27.706,75.402z"/>
		</g>
	</g>
	<g>
		<defs>
			<rect id="SVGID_3_" x="96.808" y="45.63" width="6" height="41"/>
		</defs>
		<clipPath id="SVGID_4_">
			<use xlink:href="#SVGID_3_"  overflow="visible"/>
		</clipPath>
		<g clip-path="url(#SVGID_4_)">
			<path fill="#E8515D" d="M27.706,75.402c0,0,23.901-12.824,27.452-14.357c3.548-1.533,7.644-0.184,7.726,4.574l5.516-4.768
				c0,0,3.08-3.541,8.242-0.443c5.163,3.098,6.536,1.725,8.795,0.273c2.258-1.451,19.126-14.451,20.291-15.984l-1.553,50.934H31.393
				L27.706,75.402z"/>
		</g>
	</g>
	<g>
		<defs>
			<path id="SVGID_5_" d="M94.808,69.466c0,0.643-0.522,1.164-1.165,1.164h-54.67c-0.644,0-1.165-0.521-1.165-1.164v-9.672
				c0-0.643,0.521-1.164,1.165-1.164h54.67c0.643,0,1.165,0.521,1.165,1.164V69.466z"/>
		</defs>
		<clipPath id="SVGID_6_">
			<use xlink:href="#SVGID_5_"  overflow="visible"/>
		</clipPath>
		<g clip-path="url(#SVGID_6_)">
			<path fill="#E8515D" d="M27.706,75.402c0,0,23.901-12.824,27.452-14.357c3.548-1.533,7.644-0.184,7.726,4.574l5.516-4.768
				c0,0,3.08-3.541,8.242-0.443c5.163,3.098,6.536,1.725,8.795,0.273c2.258-1.451,19.126-14.451,20.291-15.984l-1.553,50.934H31.393
				L27.706,75.402z"/>
		</g>
	</g>
	<g>
		<defs>
			<path id="SVGID_7_" d="M93.441,57.63c0.64,0,1.367-1.126,1.367-1.765v-5.093c0-0.641-0.625-0.905-1.262-0.954
				c0,0-6.372-1.188-13.767,7.812H93.441z"/>
		</defs>
		<clipPath id="SVGID_8_">
			<use xlink:href="#SVGID_7_"  overflow="visible"/>
		</clipPath>
		<g clip-path="url(#SVGID_8_)">
			<path fill="#E8515D" d="M27.706,75.402c0,0,23.901-12.824,27.452-14.357c3.548-1.533,7.644-0.184,7.726,4.574l5.516-4.768
				c0,0,3.08-3.541,8.242-0.443c5.163,3.098,6.536,1.725,8.795,0.273c2.258-1.451,19.126-14.451,20.291-15.984l-1.553,50.934H31.393
				L27.706,75.402z"/>
		</g>
	</g>
	<g>
		<g>
			<path fill="#010202" d="M32.031,101.153c-18.165-19.135-17.88-49.472,0.887-68.236C50.48,15.353,78.181,13.98,97.346,28.771
				l12.046-1.721l1.599-11.203C84.484-6.504,44.699-5.217,19.741,19.742c-26.018,26.018-26.312,68.145-0.92,94.549l1.641-11.485
				L32.031,101.153z"/>
		</g>
		<g>
			<path fill="#010202" d="M116.178,20.71l-1.64,11.485l-11.569,1.652c18.165,19.135,17.879,49.472-0.885,68.236
				c-17.565,17.562-45.265,18.937-64.431,4.146l-12.046,1.721l-1.6,11.202c26.508,22.352,66.292,21.065,91.249-3.896
				C141.277,89.242,141.572,47.116,116.178,20.71z"/>
		</g>
	</g>
</g>
</svg>
