<?xml version="1.0" encoding="utf-8"?>
<!-- Generator: Adobe Illustrator 17.0.0, SVG Export Plug-In . SVG Version: 6.00 Build 0)  -->
<!DOCTYPE svg PUBLIC "-//W3C//DTD SVG 1.1//EN" "http://www.w3.org/Graphics/SVG/1.1/DTD/svg11.dtd">
<svg version="1.1" id="Layer_1" xmlns="http://www.w3.org/2000/svg" xmlns:xlink="http://www.w3.org/1999/xlink" x="0px" y="0px"
	 width="135px" height="135.001px" viewBox="0 0 135 135.001" enable-background="new 0 0 135 135.001" xml:space="preserve">
<g>
	<g>
		<g>
			<path fill="#E5283C" d="M46.808,75.63h22.615l11.83-16.527l8.168,14.759l1.479-4.078l-7.887-14.222c0,0,0.282-9.822-6.197-9.822
				c0,0-2.041,0.008-2.041,1.346s1.126,1.871,1.478,1.871c0.352,0,3.732-0.326,3.732,5.674H57.171l-1.408-2h2.886
				c0,0,1.197-0.329,1.197-1.948c0-1.62-1.479-1.59-1.479-1.59l-9.858-0.618c0,0-1.408,0.252-1.408,1.59
				c0,1.34,1.197,2.03,2.042,2.03c0.844,0,2.886,0.062,2.886,0.062l3.099,4.927l-9.647,13.024l1.05,5.314"/>
		</g>
		<g>
			<g>
				<path fill="#E5283C" d="M45.13,86.406c-6.988,0-12.674-5.687-12.674-12.675c0-6.989,5.686-12.675,12.674-12.675
					c6.988,0,12.676,5.685,12.676,12.675C57.806,80.719,52.118,86.406,45.13,86.406z M45.13,64.015
					c-5.358,0-9.717,4.357-9.717,9.716c0,5.357,4.359,9.718,9.717,9.718c5.359,0,9.718-4.36,9.718-9.718
					C54.848,68.372,50.489,64.015,45.13,64.015z"/>
			</g>
		</g>
		<g>
			<circle fill="#E5283C" cx="45.131" cy="73.731" r="4.014"/>
		</g>
		<g>
			<g>
				<path fill="#E5283C" d="M91.181,86.406c-6.988,0-12.675-5.687-12.675-12.675c0-6.989,5.688-12.675,12.675-12.675
					c6.988,0,12.674,5.685,12.674,12.675C103.856,80.719,98.17,86.406,91.181,86.406z M91.181,64.015
					c-5.358,0-9.717,4.357-9.717,9.716c0,5.357,4.359,9.718,9.717,9.718c5.358,0,9.717-4.36,9.717-9.718
					C100.899,68.372,96.539,64.015,91.181,64.015z"/>
			</g>
		</g>
		<g>
			<circle fill="#E5283C" cx="91.181" cy="73.731" r="4.014"/>
		</g>
		<g>
			<defs>
				<path id="SVGID_1_" d="M45.13,86.406c-6.988,0-12.674-5.687-12.674-12.675c0-6.989,5.686-12.675,12.674-12.675
					c6.988,0,12.676,5.685,12.676,12.675C57.806,80.719,52.118,86.406,45.13,86.406z M45.13,64.015
					c-5.358,0-9.717,4.357-9.717,9.716c0,5.357,4.359,9.718,9.717,9.718c5.359,0,9.718-4.36,9.718-9.718
					C54.848,68.372,50.489,64.015,45.13,64.015z"/>
			</defs>
			<clipPath id="SVGID_2_">
				<use xlink:href="#SVGID_1_"  overflow="visible"/>
			</clipPath>
			<g clip-path="url(#SVGID_2_)">
				<path fill="#E8515D" d="M28.406,75.402c0,0,23.902-12.824,27.452-14.357c3.548-1.533,7.644-0.184,7.726,4.574l5.516-4.768
					c0,0,3.08-3.541,8.242-0.443c5.163,3.098,6.536,1.725,8.794,0.273c2.258-1.451,19.127-14.451,20.291-15.984l-1.552,50.934
					H40.244L28.406,75.402z"/>
			</g>
		</g>
		<g>
			<circle fill="#E8515D" cx="45.131" cy="73.731" r="4.014"/>
		</g>
		<g>
			<g>
				<path fill="#E8515D" d="M91.181,86.406c-6.988,0-12.675-5.687-12.675-12.675c0-6.989,5.688-12.675,12.675-12.675
					c6.988,0,12.674,5.685,12.674,12.675C103.856,80.719,98.17,86.406,91.181,86.406z M91.181,64.015
					c-5.358,0-9.717,4.357-9.717,9.716c0,5.357,4.359,9.718,9.717,9.718c5.358,0,9.717-4.36,9.717-9.718
					C100.899,68.372,96.539,64.015,91.181,64.015z"/>
			</g>
		</g>
		<g>
			<circle fill="#E8515D" cx="91.181" cy="73.731" r="4.014"/>
		</g>
		<g>
			<defs>
				<path id="SVGID_3_" d="M46.808,75.63h22.615l11.83-16.527l8.168,14.759l1.479-4.078l-7.887-14.222c0,0,0.282-9.822-6.197-9.822
					c0,0-2.041,0.009-2.041,1.346c0,1.338,1.126,1.87,1.478,1.87c0.352,0,3.732-0.325,3.732,5.675H57.171l-1.408-2h2.886
					c0,0,1.197-0.329,1.197-1.948c0-1.62-1.479-1.589-1.479-1.589l-9.858-0.619c0,0-1.408,0.252-1.408,1.59
					c0,1.34,1.197,2.029,2.042,2.029c0.844,0,2.886,0.062,2.886,0.062l3.099,4.928l-9.647,13.021l1.05,5.316"/>
			</defs>
			<clipPath id="SVGID_4_">
				<use xlink:href="#SVGID_3_"  overflow="visible"/>
			</clipPath>
			<g clip-path="url(#SVGID_4_)">
				<path fill="#E8515D" d="M28.406,75.402c0,0,23.902-12.824,27.452-14.357c3.548-1.533,7.644-0.184,7.726,4.574l5.516-4.768
					c0,0,3.08-3.541,8.242-0.443c5.163,3.098,6.536,1.725,8.794,0.273c2.258-1.451,19.127-14.451,20.291-15.984l-1.552,50.934
					H40.244L28.406,75.402z"/>
			</g>
		</g>
		<g>
			<path fill="#FFFFFF" d="M65.156,71.546c0.371,0.521,0.152,1.084-0.488,1.084H49.041c-0.64,0-0.86-0.563-0.488-1.084l7.624-10.741
				c0.372-0.521,0.982-0.486,1.354,0.034L65.156,71.546z"/>
		</g>
		<g>
			<path fill="#FFFFFF" d="M69.373,70.011c-0.379,0.517-0.99,0.51-1.359-0.015l-8.06-11.442c-0.369-0.524-0.146-0.924,0.495-0.924
				h16.893c0.64,0,0.854,0.393,0.476,0.909L69.373,70.011z"/>
		</g>
	</g>
	<g>
		<g>
			<path fill="#010202" d="M32.031,101.153c-18.166-19.135-17.88-49.472,0.886-68.236c17.563-17.563,45.264-18.937,64.43-4.146
				l12.045-1.721l1.599-11.203C84.483-6.504,44.7-5.217,19.741,19.742c-26.017,26.018-26.312,68.145-0.92,94.549l1.641-11.485
				L32.031,101.153z"/>
		</g>
		<g>
			<path fill="#010202" d="M116.179,20.71l-1.64,11.485l-11.57,1.652c18.166,19.135,17.879,49.472-0.885,68.236
				c-17.564,17.562-45.264,18.937-64.431,4.146l-12.045,1.721l-1.6,11.202c26.508,22.352,66.292,21.065,91.249-3.896
				C141.277,89.242,141.571,47.116,116.179,20.71z"/>
		</g>
	</g>
</g>
</svg>
