<?xml version="1.0" encoding="utf-8"?>
<!-- Generator: Adobe Illustrator 17.0.0, SVG Export Plug-In . SVG Version: 6.00 Build 0)  -->
<!DOCTYPE svg PUBLIC "-//W3C//DTD SVG 1.1//EN" "http://www.w3.org/Graphics/SVG/1.1/DTD/svg11.dtd">
<svg version="1.1" id="Layer_1" xmlns="http://www.w3.org/2000/svg" xmlns:xlink="http://www.w3.org/1999/xlink" x="0px" y="0px"
	 width="135px" height="135.001px" viewBox="0 0 135 135.001" enable-background="new 0 0 135 135.001" xml:space="preserve">
<g>
	<g>
		<rect x="58.808" y="41.63" fill="#E5283C" width="28" height="52"/>
	</g>
	<g>
		<defs>
			<rect id="SVGID_1_" x="58.808" y="41.63" width="28" height="52"/>
		</defs>
		<clipPath id="SVGID_2_">
			<use xlink:href="#SVGID_1_"  overflow="visible"/>
		</clipPath>
		<g clip-path="url(#SVGID_2_)">
			<path fill="#E8515D" d="M30.668,76.37c0,0,23.902-12.842,27.452-14.374c3.549-1.533,7.645-0.19,7.727,4.567l5.516-4.773
				c0,0,3.079-3.542,8.242-0.444c5.163,3.099,6.535,1.724,8.794,0.271c2.259-1.45,19.127-14.419,20.291-15.952l-1.552,50.965H34.356
				L30.668,76.37z"/>
		</g>
	</g>
	<g>
		<path fill="#E5283C" d="M62.63,42.832c0-1.146-3.439-2.075-6.912-2.075c-3.471,0-6.91,0.929-6.91,2.075v49.284
			c0,1.147,3.44,2.074,6.91,2.074c3.473,0,6.599-0.928,6.599-2.074L62.63,42.832z"/>
	</g>
	<g>
		<g>
			<path fill="#FFFFFF" d="M56.188,44.131c-2.409,0-4.85-0.481-4.85-1.403c0-0.922,2.44-1.403,4.85-1.403
				c2.41,0,4.85,0.481,4.85,1.403C61.037,43.65,58.598,44.131,56.188,44.131z M56.188,41.791c-2.801,0-4.33,0.618-4.33,0.937
				c0,0.318,1.529,0.935,4.33,0.935c2.802,0,4.33-0.617,4.33-0.935C60.518,42.41,58.989,41.791,56.188,41.791z"/>
		</g>
	</g>
	<g>
		<g>
			<path fill="#010202" d="M32.031,101.153c-18.165-19.135-17.88-49.472,0.887-68.236C50.48,15.353,78.181,13.98,97.346,28.771
				l12.046-1.721l1.599-11.203C84.484-6.504,44.699-5.217,19.741,19.742c-26.018,26.018-26.312,68.145-0.92,94.549l1.641-11.485
				L32.031,101.153z"/>
		</g>
		<g>
			<path fill="#010202" d="M116.179,20.71l-1.641,11.485l-11.569,1.652c18.165,19.135,17.879,49.472-0.885,68.236
				c-17.564,17.562-45.265,18.937-64.431,4.146l-12.046,1.721l-1.6,11.202c26.508,22.352,66.292,21.065,91.249-3.896
				C141.277,89.242,141.572,47.116,116.179,20.71z"/>
		</g>
	</g>
</g>
</svg>
