<?xml version="1.0" encoding="utf-8"?>
<!-- Generator: Adobe Illustrator 17.0.0, SVG Export Plug-In . SVG Version: 6.00 Build 0)  -->
<!DOCTYPE svg PUBLIC "-//W3C//DTD SVG 1.1//EN" "http://www.w3.org/Graphics/SVG/1.1/DTD/svg11.dtd">
<svg version="1.1" id="Layer_1" xmlns="http://www.w3.org/2000/svg" xmlns:xlink="http://www.w3.org/1999/xlink" x="0px" y="0px"
	 width="135px" height="135.001px" viewBox="0 0 135 135.001" enable-background="new 0 0 135 135.001" xml:space="preserve">
<g>
	<g>
		<circle fill="#FFFFFF" cx="85.448" cy="46.321" r="2.329"/>
	</g>
	<g>
		<path fill="#E5283C" d="M60.119,43.543c0.081,0.173,0.468,0.928,0.863,1.432c0,0,6.08,7.655,13.649-1.345h2.811
			c0.641,0,1.683-0.325,2.316-0.234l5.074,0.534c0.634,0.092,1.61,0.319,2.171,0.63l13.683,7.51
			c0.561,0.309,0.729,0.974,0.374,1.508l-7.252,10.881c-0.355,0.534-1.123,0.75-1.708,0.49l-5.337-2.428
			c-0.584-0.26-0.955,0.048-0.955,0.688v26.199c0,0.64-0.739,1.223-1.379,1.223H49.494c-0.64,0-1.686-0.583-1.686-1.223V63.788
			c0-0.641-0.226-0.968-0.819-0.727L42.1,65.1c-0.594,0.241-1.297-0.003-1.645-0.542l-7.101-11.044
			c-0.347-0.539-0.146-1.217,0.425-1.506l14.306-7.246c0.571-0.289,1.557-0.627,2.186-0.748l4.971-0.563
			c0.629-0.121,1.669,0.18,2.31,0.18h1.259C59.45,43.63,60.039,43.37,60.119,43.543z"/>
	</g>
	<g>
		<defs>
			<path id="SVGID_1_" d="M60.119,43.543c0.081,0.173,0.468,0.928,0.863,1.432c0,0,6.08,7.655,13.649-1.345h2.811
				c0.641,0,1.683-0.325,2.316-0.234l5.074,0.534c0.634,0.092,1.61,0.319,2.171,0.63l13.683,7.51
				c0.561,0.309,0.729,0.974,0.374,1.508l-7.252,10.881c-0.355,0.534-1.123,0.75-1.708,0.49l-5.337-2.428
				c-0.584-0.26-0.955,0.048-0.955,0.688v26.199c0,0.64-0.739,1.223-1.379,1.223H49.494c-0.64,0-1.686-0.583-1.686-1.223V63.788
				c0-0.641-0.226-0.968-0.819-0.727L42.1,65.1c-0.594,0.241-1.297-0.003-1.645-0.542l-7.101-11.044
				c-0.347-0.539-0.146-1.217,0.425-1.506l14.306-7.246c0.571-0.289,1.557-0.627,2.186-0.748l4.971-0.563
				c0.629-0.121,1.669,0.18,2.31,0.18h1.259C59.45,43.63,60.039,43.37,60.119,43.543z"/>
		</defs>
		<clipPath id="SVGID_2_">
			<use xlink:href="#SVGID_1_"  overflow="visible"/>
		</clipPath>
		<g clip-path="url(#SVGID_2_)">
			<path fill="#E8515D" d="M39.808,69.618c0,0,12.049-6.452,15.597-7.985c3.55-1.533,7.638-0.161,7.718,4.597l5.514-4.758
				c0,0,3.077-3.534,8.24-0.437c5.162,3.098,6.608,1.727,8.867,0.274c2.258-1.45,9.064-6.129,17.064-13.484v42.747l-63,5.822V69.618
				z"/>
		</g>
	</g>
	<g>
		<rect x="47.808" y="87.63" fill="#FFFFFF" width="38" height="1"/>
	</g>
	<g>
		<path fill="#FFFFFF" d="M67.231,49.596c-6.793,0-9.772-6.258-9.896-6.524c-0.134-0.291-0.008-0.637,0.283-0.771
			c0.289-0.135,0.637-0.011,0.773,0.281c0.027,0.059,2.801,5.851,8.839,5.851c6.043,0,8.558-5.774,8.583-5.831
			c0.126-0.298,0.47-0.433,0.763-0.309c0.296,0.125,0.435,0.466,0.308,0.762C76.859,43.12,74.037,49.596,67.231,49.596z"/>
	</g>
	<g>
		<g>
			<path fill="#010202" d="M32.031,101.153c-18.166-19.135-17.88-49.472,0.886-68.236c17.563-17.563,45.264-18.937,64.43-4.146
				l12.045-1.721l1.599-11.203C84.483-6.504,44.7-5.217,19.741,19.742c-26.017,26.018-26.312,68.145-0.92,94.549l1.641-11.485
				L32.031,101.153z"/>
		</g>
		<g>
			<path fill="#010202" d="M116.179,20.71l-1.64,11.485l-11.57,1.652c18.166,19.135,17.879,49.472-0.885,68.235
				c-17.564,17.563-45.264,18.938-64.431,4.147l-12.045,1.721l-1.6,11.202c26.508,22.352,66.292,21.065,91.249-3.896
				C141.277,89.242,141.571,47.116,116.179,20.71z"/>
		</g>
	</g>
</g>
</svg>
