<?xml version="1.0" encoding="utf-8"?>
<!-- Generator: Adobe Illustrator 17.0.0, SVG Export Plug-In . SVG Version: 6.00 Build 0)  -->
<!DOCTYPE svg PUBLIC "-//W3C//DTD SVG 1.1//EN" "http://www.w3.org/Graphics/SVG/1.1/DTD/svg11.dtd">
<svg version="1.1" id="Layer_1" xmlns="http://www.w3.org/2000/svg" xmlns:xlink="http://www.w3.org/1999/xlink" x="0px" y="0px"
	 width="135px" height="135.001px" viewBox="0 0 135 135.001" enable-background="new 0 0 135 135.001" xml:space="preserve">
<g>
	<g>
		<g>
			<path fill="#010202" d="M32.031,101.153c-18.165-19.135-17.88-49.472,0.887-68.236C50.48,15.353,78.181,13.98,97.346,28.771
				l12.046-1.721l1.599-11.203C84.484-6.504,44.699-5.217,19.741,19.742c-26.018,26.018-26.312,68.145-0.92,94.549l1.641-11.485
				L32.031,101.153z"/>
		</g>
		<g>
			<path fill="#010202" d="M116.179,20.71l-1.641,11.485l-11.569,1.652c18.165,19.135,17.879,49.472-0.885,68.235
				c-17.564,17.563-45.265,18.938-64.431,4.147l-12.046,1.721l-1.6,11.202c26.508,22.352,66.292,21.065,91.249-3.896
				C141.277,89.242,141.572,47.116,116.179,20.71z"/>
		</g>
	</g>
	<g>
		<g>
			<path fill="#E5283C" d="M91.808,80.466c0,0.643-0.521,1.164-1.165,1.164h-45.67c-0.644,0-1.165-0.521-1.165-1.164V45.794
				c0-0.643,0.521-1.164,1.165-1.164h45.67c0.644,0,1.165,0.521,1.165,1.164V80.466z"/>
		</g>
		<g>
			<defs>
				<path id="SVGID_1_" d="M91.808,80.466c0,0.643-0.521,1.164-1.165,1.164h-45.67c-0.644,0-1.165-0.521-1.165-1.164V45.794
					c0-0.643,0.521-1.164,1.165-1.164h45.67c0.644,0,1.165,0.521,1.165,1.164V80.466z"/>
			</defs>
			<clipPath id="SVGID_2_">
				<use xlink:href="#SVGID_1_"  overflow="visible"/>
			</clipPath>
			<g clip-path="url(#SVGID_2_)">
				<path fill="#E8515D" d="M25.743,73.308c0,0,23.901-12.872,27.452-14.405c3.548-1.532,7.645-0.206,7.726,4.552l5.516-4.78
					c0,0,3.08-3.546,8.243-0.448c5.162,3.098,6.535,1.723,8.794,0.271c2.258-1.451,19.126-14.359,20.291-15.893l-1.553,51.026H29.43
					L25.743,73.308z"/>
			</g>
		</g>
		<g>
			<path fill="#FFFFFF" d="M88.808,78.466c0,0.643-0.521,1.164-1.164,1.164H46.972c-0.643,0-1.164-0.521-1.164-1.164V47.794
				c0-0.643,0.521-1.164,1.164-1.164h40.672c0.643,0,1.164,0.521,1.164,1.164V78.466z"/>
		</g>
		<g>
			<path fill="#E8515D" d="M76.39,84.13c0,0.32-0.524,0.5-1.164,0.5H61.251c-0.64,0-1.164-0.18-1.164-0.5
				c0-0.32,0.524-0.5,1.164-0.5h13.975C75.865,83.63,76.39,83.81,76.39,84.13z"/>
		</g>
		<g>
			<rect x="65.808" y="81.63" fill="#E8515D" width="4" height="2"/>
		</g>
		<g>
			<path fill="#E8515D" d="M87.808,88.63c0,0.553-0.447,1-1,1h-38c-0.553,0-1-0.447-1-1l0,0c0-0.553,0.447-1,1-1h38
				C87.361,87.63,87.808,88.078,87.808,88.63L87.808,88.63z"/>
		</g>
	</g>
</g>
</svg>
