<?xml version="1.0" encoding="utf-8"?>
<!-- Generator: Adobe Illustrator 17.0.0, SVG Export Plug-In . SVG Version: 6.00 Build 0)  -->
<!DOCTYPE svg PUBLIC "-//W3C//DTD SVG 1.1//EN" "http://www.w3.org/Graphics/SVG/1.1/DTD/svg11.dtd">
<svg version="1.1" id="Layer_1" xmlns="http://www.w3.org/2000/svg" xmlns:xlink="http://www.w3.org/1999/xlink" x="0px" y="0px"
	 width="135px" height="135.001px" viewBox="0 0 135 135.001" enable-background="new 0 0 135 135.001" xml:space="preserve">
<g>
	<g>
		<defs>
			<path id="SVGID_1_" d="M58.543,92.106c0,0.641,0.524,1.165,1.165,1.165h25.619c0.64,0,1.164-0.524,1.164-1.165V43.197
				c0-0.64-0.524-1.164-1.164-1.164H59.707c-0.641,0-1.165,0.524-1.165,1.164V92.106z"/>
		</defs>
		<clipPath id="SVGID_2_">
			<use xlink:href="#SVGID_1_"  overflow="visible"/>
		</clipPath>
	</g>
	<g>
		<path fill="#E5283C" d="M81.808,73.466c0,0.643-0.521,1.164-1.164,1.164H55.972c-0.643,0-1.164-0.521-1.164-1.164V42.794
			c0-0.643,0.521-1.164,1.164-1.164h24.672c0.643,0,1.164,0.521,1.164,1.164V73.466z"/>
	</g>
	<g>
		<path fill="#E8515D" d="M72.808,91.465c0,0.644-0.522,1.165-1.165,1.165h-5.671c-0.643,0-1.165-0.521-1.165-1.165v-20.67
			c0-0.644,0.521-1.165,1.165-1.165h5.671c0.643,0,1.165,0.521,1.165,1.165V91.465z"/>
	</g>
	<g>
		<g>
			<defs>
				<path id="SVGID_3_" d="M81.832,73.474c0,0.641-0.524,1.164-1.164,1.164H56.214c-0.64,0-1.165-0.523-1.165-1.164V43.197
					c0-0.64,0.524-1.164,1.165-1.164h24.455c0.64,0,1.164,0.524,1.164,1.164V73.474z"/>
			</defs>
			<clipPath id="SVGID_4_">
				<use xlink:href="#SVGID_3_"  overflow="visible"/>
			</clipPath>
		</g>
		<g>
			<defs>
				<path id="SVGID_5_" d="M81.832,73.474c0,0.641-0.524,1.164-1.164,1.164H56.214c-0.64,0-1.165-0.523-1.165-1.164V43.197
					c0-0.64,0.524-1.164,1.165-1.164h24.455c0.64,0,1.164,0.524,1.164,1.164V73.474z"/>
			</defs>
			<clipPath id="SVGID_6_">
				<use xlink:href="#SVGID_5_"  overflow="visible"/>
			</clipPath>
			<g clip-path="url(#SVGID_6_)">
				<g>
					<path fill="#E8515D" d="M30.877,77.584c-0.115-0.632,0.253-1.396,0.816-1.699c0,0,22.877-12.323,26.428-13.855
						c3.548-1.533,7.644-0.207,7.726,4.551l4.635-4.019c0.484-0.42,1.224-1.159,1.643-1.643c0,0,2.316-2.667,7.479,0.431
						c5.163,3.098,6.536,1.722,8.794,0.27c2.259-1.451,19.127-14.354,20.291-15.887l-1.517,49.866c-0.02,0.641-0.56,1.165-1.2,1.165
						H35.52c-0.64,0-1.258-0.516-1.372-1.146L30.877,77.584z"/>
				</g>
			</g>
		</g>
		<g>
			<defs>
				<path id="SVGID_7_" d="M81.832,73.474c0,0.641-0.524,1.164-1.164,1.164H56.214c-0.64,0-1.165-0.523-1.165-1.164V43.197
					c0-0.64,0.524-1.164,1.165-1.164h24.455c0.64,0,1.164,0.524,1.164,1.164V73.474z"/>
			</defs>
			<clipPath id="SVGID_8_">
				<use xlink:href="#SVGID_7_"  overflow="visible"/>
			</clipPath>
		</g>
	</g>
	<g>
		<rect x="54.808" y="67.63" fill="#FFFFFF" width="27" height="1"/>
	</g>
	<g>
		<g>
			<path fill="#010202" d="M32.031,101.153c-18.166-19.135-17.88-49.472,0.886-68.236c17.563-17.563,45.264-18.937,64.43-4.146
				l12.045-1.721l1.599-11.203C84.483-6.504,44.7-5.217,19.741,19.742c-26.017,26.018-26.312,68.145-0.92,94.549l1.641-11.485
				L32.031,101.153z"/>
		</g>
		<g>
			<path fill="#010202" d="M116.179,20.71l-1.64,11.485l-11.57,1.652c18.166,19.135,17.879,49.472-0.885,68.235
				c-17.564,17.563-45.264,18.938-64.431,4.147l-12.045,1.721l-1.6,11.202c26.508,22.352,66.292,21.065,91.249-3.896
				C141.277,89.242,141.571,47.116,116.179,20.71z"/>
		</g>
	</g>
</g>
</svg>
