<?xml version="1.0" encoding="utf-8"?>
<!-- Generator: Adobe Illustrator 17.0.0, SVG Export Plug-In . SVG Version: 6.00 Build 0)  -->
<!DOCTYPE svg PUBLIC "-//W3C//DTD SVG 1.1//EN" "http://www.w3.org/Graphics/SVG/1.1/DTD/svg11.dtd">
<svg version="1.1" id="Layer_1" xmlns="http://www.w3.org/2000/svg" xmlns:xlink="http://www.w3.org/1999/xlink" x="0px" y="0px"
	 width="135px" height="135.001px" viewBox="0 0 135 135.001" enable-background="new 0 0 135 135.001" xml:space="preserve">
<g>
	<g>
		<g>
			<path fill="#010202" d="M32.031,101.153c-18.166-19.135-17.88-49.472,0.886-68.236c17.563-17.563,45.264-18.936,64.43-4.145
				l12.045-1.721l1.599-11.203C84.483-6.503,44.7-5.217,19.741,19.741c-26.017,26.019-26.312,68.146-0.92,94.55l1.641-11.485
				L32.031,101.153z"/>
		</g>
		<g>
			<path fill="#010202" d="M116.179,20.71l-1.64,11.485l-11.57,1.652c18.166,19.135,17.879,49.472-0.885,68.235
				c-17.564,17.563-45.264,18.938-64.431,4.147l-12.045,1.721l-1.6,11.202c26.508,22.352,66.292,21.065,91.249-3.896
				C141.277,89.242,141.571,47.116,116.179,20.71z"/>
		</g>
	</g>
	<g>
		<path fill="#E5283C" d="M95.518,89.396c0,0.641-0.525,1.165-1.165,1.165H39.864c-0.64,0-1.165-0.524-1.165-1.165V49.111
			c0-0.641,0.524-1.165,1.165-1.165h54.489c0.64,0,1.165,0.524,1.165,1.165V89.396z"/>
	</g>
	<g>
		<path fill="#E5283C" d="M74.011,53.551H60.866c-1.606,0-2.911-1.306-2.911-2.911v-5.036c0-1.606,1.305-2.912,2.911-2.912h13.145
			c1.605,0,2.911,1.306,2.911,2.912v5.036C76.922,52.246,75.617,53.551,74.011,53.551z M61.448,50.058h11.981v-3.872H61.448V50.058z
			"/>
	</g>
	<g>
		<defs>
			<rect id="SVGID_1_" x="38.7" y="47.946" width="56.818" height="42.615"/>
		</defs>
		<clipPath id="SVGID_2_">
			<use xlink:href="#SVGID_1_"  overflow="visible"/>
		</clipPath>
		<g clip-path="url(#SVGID_2_)">
			<path fill="#E8515D" d="M22.634,80.476c0,0,28.247-15.393,32.443-17.205c4.193-1.811,9.034-0.334,9.131,5.289l6.518-5.695
				c0,0,3.639-4.211,9.741-0.551c6.101,3.66,7.724,2.022,10.393,0.307c2.669-1.715,22.604-16.612,23.98-18.424l-1.835,60.662H26.991
				L22.634,80.476z"/>
		</g>
	</g>
	<g>
		<rect x="43.967" y="47.52" fill="#FFFFFF" width="3.494" height="43.493"/>
	</g>
	<g>
		<rect x="88.16" y="47.52" fill="#FFFFFF" width="3.494" height="43.493"/>
	</g>
</g>
</svg>
