<?xml version="1.0" encoding="utf-8"?>
<!-- Generator: Adobe Illustrator 17.0.0, SVG Export Plug-In . SVG Version: 6.00 Build 0)  -->
<!DOCTYPE svg PUBLIC "-//W3C//DTD SVG 1.1//EN" "http://www.w3.org/Graphics/SVG/1.1/DTD/svg11.dtd">
<svg version="1.1" id="Layer_1" xmlns="http://www.w3.org/2000/svg" xmlns:xlink="http://www.w3.org/1999/xlink" x="0px" y="0px"
	 width="40.18px" height="39.542px" viewBox="0 0 40.18 39.542" enable-background="new 0 0 40.18 39.542" xml:space="preserve">
<path fill="#FFFFFF" d="M40.18,37.709V1.833C40.18,0.82,39.358,0,38.347,0h-3.269H5.103h-3.27c-1.01,0-1.826,0.816-1.832,1.824
	v32.615L0,37.713c0.001,1.01,0.821,1.829,1.833,1.829H22.11V23.667h-5.234v-5.47h5.234v-5.941c0-3.559,3.228-5.95,5.832-5.95h5.859
	v4.977h-2.703c-1.332,0-3.108,1.08-3.108,2.411v4.503h5.279v5.47h-5.279v15.875h7.086h3.269
	C39.358,39.542,40.18,38.722,40.18,37.709z"/>
</svg>
