<?xml version="1.0" encoding="utf-8"?>
<!-- Generator: Adobe Illustrator 17.0.0, SVG Export Plug-In . SVG Version: 6.00 Build 0)  -->
<!DOCTYPE svg PUBLIC "-//W3C//DTD SVG 1.1//EN" "http://www.w3.org/Graphics/SVG/1.1/DTD/svg11.dtd">
<svg version="1.1" id="Layer_1" xmlns="http://www.w3.org/2000/svg" xmlns:xlink="http://www.w3.org/1999/xlink" x="0px" y="0px"
	 width="257px" height="84.05px" viewBox="0 0 257 84.05" enable-background="new 0 0 257 84.05" xml:space="preserve">
<polygon fill="none" points="40.591,79.226 39.884,74.276 52.217,72.515 53.978,60.182 58.929,60.888 56.636,76.934 "/>
<g>
	<g>
		<path fill="#010202" d="M13.327,42.085c-7.558-7.961-7.439-20.583,0.368-28.39c7.308-7.308,18.833-7.879,26.807-1.726l5.011-0.715
			l0.666-4.661C35.15-2.706,18.597-2.171,8.214,8.213C-2.611,19.038-2.734,36.565,7.831,47.552l0.683-4.779L13.327,42.085z"/>
		<path fill="#010202" d="M48.337,8.616l-0.682,4.779l-4.814,0.688c7.558,7.961,7.439,20.583-0.369,28.391
			c-7.307,7.307-18.832,7.878-26.806,1.725l-5.012,0.716l-0.665,4.66c11.029,9.299,27.581,8.765,37.965-1.621
			C58.78,37.129,58.902,19.603,48.337,8.616z"/>
	</g>
	<path fill="#E5283C" d="M27.849,19.649c0,0-2.351-2.79-5.687-2.79c-3.336,0-6.836,3.008-6.836,7.055
		c0,4.046,6.262,10.171,6.262,10.171l6.262,6.125l1.798-1.812l4.409-4.313c0,0,6.262-6.125,6.262-10.171
		c0-4.047-3.5-7.055-6.836-7.055c-3.336,0-5.688,2.79-5.688,2.79"/>
	<g>
		<defs>
			<path id="SVGID_1_" d="M27.849,19.649c0,0-2.351-2.79-5.687-2.79c-3.336,0-6.836,3.008-6.836,7.055
				c0,4.046,6.262,10.171,6.262,10.171l6.262,6.125l1.798-1.812l4.409-4.313c0,0,6.262-6.125,6.262-10.171
				c0-4.047-3.5-7.055-6.836-7.055c-3.336,0-5.688,2.79-5.688,2.79"/>
		</defs>
		<clipPath id="SVGID_2_">
			<use xlink:href="#SVGID_1_"  overflow="visible"/>
		</clipPath>
		<path clip-path="url(#SVGID_2_)" fill="#E8515D" d="M17.551,30.024c0,0,4.842-2.685,6.319-3.322
			c1.477-0.637,3.093-0.067,3.126,1.913l2.251-1.98c0,0,1.259-1.47,3.407-0.182c2.148,1.289,2.757,0.719,3.697,0.114
			c0.939-0.604,4.2-2.55,4.2-3.188v18.001h-23V30.024z"/>
	</g>
</g>
<g>
	<path fill="#010202" d="M73.449,83.116c-1.576,0.623-3.164,0.934-4.765,0.934c-2.033,0-3.85-0.375-5.451-1.125
		c-1.601-0.749-2.961-1.76-4.079-3.031c-1.119-1.271-1.97-2.732-2.554-4.384c-0.585-1.651-0.877-3.367-0.877-5.147
		c0-1.982,0.273-3.869,0.819-5.66c0.546-1.792,1.36-3.361,2.44-4.708c1.081-1.348,2.427-2.421,4.041-3.222
		c1.614-0.8,3.501-1.201,5.661-1.201c1.474,0,2.865,0.172,4.174,0.515c1.309,0.343,2.478,0.883,3.507,1.62
		c1.029,0.738,1.893,1.671,2.592,2.802c0.699,1.131,1.175,2.497,1.429,4.098h-3.621c-0.178-1.042-0.508-1.937-0.991-2.687
		c-0.484-0.75-1.08-1.365-1.791-1.849c-0.712-0.482-1.52-0.845-2.421-1.086c-0.902-0.242-1.862-0.362-2.878-0.362
		c-1.652,0-3.069,0.331-4.25,0.991c-1.182,0.661-2.148,1.531-2.897,2.611c-0.75,1.08-1.303,2.312-1.659,3.698
		c-0.356,1.385-0.534,2.802-0.534,4.25c0,1.424,0.204,2.79,0.61,4.098c0.406,1.31,1.003,2.466,1.792,3.469
		c0.788,1.005,1.759,1.805,2.916,2.402c1.156,0.598,2.497,0.896,4.022,0.896c1.423,0,2.681-0.229,3.774-0.686
		c1.092-0.458,2.014-1.086,2.764-1.887c0.749-0.801,1.315-1.74,1.696-2.821c0.381-1.08,0.546-2.243,0.496-3.488h-8.692v-3.05h11.932
		v14.333h-2.287l-0.953-3.393C76.347,81.47,75.025,82.494,73.449,83.116z"/>
	<path fill="#010202" d="M85.648,60.186v-3.964h3.24v3.964H85.648z M88.888,63.731v19.708h-3.24V63.731H88.888z"/>
	<path fill="#010202" d="M99.333,83.439l-7.32-19.708h3.622l5.528,16.43h0.076l5.374-16.43h3.393l-7.204,19.708H99.333z"/>
	<path fill="#010202" d="M126.932,82.182c-1.474,1.119-3.33,1.678-5.566,1.678c-1.575,0-2.941-0.254-4.098-0.763
		c-1.156-0.508-2.129-1.219-2.916-2.134c-0.788-0.915-1.379-2.007-1.772-3.279c-0.395-1.27-0.617-2.655-0.668-4.155
		c0-1.499,0.229-2.871,0.686-4.117c0.458-1.245,1.1-2.325,1.926-3.24c0.825-0.915,1.804-1.626,2.935-2.135
		c1.132-0.508,2.37-0.763,3.717-0.763c1.753,0,3.208,0.362,4.365,1.086c1.156,0.725,2.083,1.646,2.783,2.764
		c0.699,1.119,1.181,2.338,1.449,3.659c0.267,1.322,0.374,2.58,0.324,3.774h-14.753c-0.026,0.865,0.077,1.684,0.304,2.459
		c0.229,0.775,0.597,1.462,1.106,2.059c0.508,0.597,1.156,1.073,1.944,1.429c0.787,0.356,1.716,0.534,2.782,0.534
		c1.373,0,2.498-0.317,3.375-0.953c0.877-0.634,1.454-1.602,1.734-2.897h3.203C129.359,79.398,128.406,81.063,126.932,82.182z
		 M126.15,69.525c-0.291-0.686-0.686-1.277-1.181-1.773c-0.496-0.495-1.081-0.889-1.753-1.181c-0.673-0.292-1.417-0.438-2.23-0.438
		c-0.838,0-1.595,0.146-2.268,0.438c-0.674,0.292-1.252,0.693-1.735,1.201c-0.483,0.509-0.864,1.1-1.144,1.772
		c-0.28,0.674-0.445,1.392-0.496,2.154h11.322C126.615,70.936,126.443,70.211,126.15,69.525z"/>
	<path fill="#010202" d="M144.239,60.186v-3.964h3.242v3.964H144.239z M147.48,63.731v19.708h-3.242V63.731H147.48z"/>
	<path fill="#010202" d="M155.561,63.731v3.126h0.077c1.347-2.388,3.48-3.583,6.403-3.583c1.297,0,2.377,0.178,3.24,0.534
		c0.864,0.356,1.564,0.852,2.097,1.486c0.534,0.636,0.908,1.392,1.125,2.269c0.215,0.877,0.324,1.849,0.324,2.917v12.96h-3.24
		V70.097c0-1.22-0.356-2.185-1.068-2.897c-0.712-0.711-1.691-1.067-2.936-1.067c-0.991,0-1.849,0.152-2.573,0.457
		c-0.725,0.305-1.329,0.737-1.811,1.296c-0.482,0.56-0.845,1.214-1.086,1.963c-0.242,0.75-0.363,1.569-0.363,2.459v11.131h-3.24
		V63.731H155.561z"/>
	<path fill="#010202" d="M188.459,56.221v13.571l13.8-13.571h4.688L195.473,67.2l11.932,16.239h-4.574l-9.836-13.761l-4.536,4.231
		v9.53h-3.621V56.221H188.459z"/>
	<path fill="#010202" d="M209.921,60.186v-3.964h3.241v3.964H209.921z M213.162,63.731v19.708h-3.241V63.731H213.162z"/>
	<path fill="#010202" d="M221.242,63.731v3.126h0.077c1.346-2.388,3.481-3.583,6.404-3.583c1.296,0,2.376,0.178,3.24,0.534
		c0.864,0.356,1.562,0.852,2.097,1.486c0.533,0.636,0.908,1.392,1.125,2.269c0.215,0.877,0.324,1.849,0.324,2.917v12.96h-3.24
		V70.097c0-1.22-0.356-2.185-1.067-2.897c-0.712-0.711-1.691-1.067-2.936-1.067c-0.991,0-1.848,0.152-2.573,0.457
		c-0.724,0.305-1.328,0.737-1.81,1.296c-0.483,0.56-0.845,1.214-1.087,1.963c-0.242,0.75-0.363,1.569-0.363,2.459v11.131h-3.24
		V63.731H221.242z"/>
	<path fill="#010202" d="M253.76,83.439v-2.668h-0.076c-0.534,1.093-1.373,1.88-2.517,2.363c-1.143,0.483-2.401,0.725-3.773,0.725
		c-1.524,0-2.854-0.28-3.984-0.839c-1.13-0.559-2.071-1.309-2.821-2.249c-0.751-0.94-1.316-2.033-1.697-3.279
		c-0.381-1.245-0.57-2.566-0.57-3.965c0-1.397,0.183-2.719,0.552-3.963c0.368-1.245,0.927-2.332,1.677-3.26
		c0.75-0.928,1.69-1.665,2.822-2.211c1.13-0.546,2.445-0.82,3.944-0.82c0.509,0,1.056,0.051,1.64,0.152
		c0.585,0.102,1.169,0.273,1.755,0.515c0.583,0.242,1.136,0.559,1.657,0.953c0.521,0.394,0.96,0.883,1.316,1.467h0.076v-10.14H257
		v27.218H253.76z M242.114,76.444c0.241,0.877,0.611,1.659,1.106,2.345c0.495,0.686,1.13,1.233,1.905,1.639
		c0.775,0.406,1.683,0.61,2.727,0.61c1.092,0,2.02-0.216,2.782-0.648c0.762-0.432,1.385-0.997,1.868-1.696
		c0.482-0.699,0.833-1.493,1.048-2.383c0.216-0.889,0.324-1.792,0.324-2.707c0-0.966-0.115-1.899-0.343-2.802
		c-0.229-0.901-0.591-1.696-1.086-2.382c-0.496-0.686-1.138-1.239-1.925-1.658c-0.788-0.419-1.741-0.629-2.859-0.629
		c-1.092,0-2.02,0.216-2.782,0.647c-0.763,0.433-1.372,1.004-1.831,1.716c-0.457,0.712-0.788,1.525-0.991,2.44
		c-0.204,0.914-0.305,1.855-0.305,2.821C241.752,74.672,241.872,75.568,242.114,76.444z"/>
</g>
</svg>
