<?xml version="1.0" encoding="utf-8"?>
<!-- Generator: Adobe Illustrator 17.0.0, SVG Export Plug-In . SVG Version: 6.00 Build 0)  -->
<!DOCTYPE svg PUBLIC "-//W3C//DTD SVG 1.1//EN" "http://www.w3.org/Graphics/SVG/1.1/DTD/svg11.dtd">
<svg version="1.1" id="Layer_1" xmlns="http://www.w3.org/2000/svg" xmlns:xlink="http://www.w3.org/1999/xlink" x="0px" y="0px"
	 width="135px" height="135.001px" viewBox="0 0 135 135.001" enable-background="new 0 0 135 135.001" xml:space="preserve">
<g>
	<g>
		<path fill="#E5283C" d="M69.397,61.024c0,0-5.028-4.287-9.108-3.047c-4.083,1.244-4.378,5.693-4.378,5.693
			s-0.698,2.621-5.407,3.117c-4.707,0.498-12.455,6.359-12.1,11.09c0.354,4.73,2.189,8.104,6.447,12.365
			c4.259,4.256,11.12,8.637,16.208,4.732c5.088-3.902,6.566-10.588,6.802-12.48c0.237-1.895,3.465-4.816,5.416-5.35
			c1.953-0.531,6.141-6.043-0.44-12.623L94.248,43.11l-3.38-3.381L69.397,61.024z"/>
	</g>
	<g>
		<defs>
			<path id="SVGID_1_" d="M69.397,61.024c0,0-5.028-4.287-9.108-3.047c-4.083,1.244-4.378,5.693-4.378,5.693
				s-0.698,2.621-5.407,3.117c-4.707,0.498-12.455,6.359-12.1,11.09c0.354,4.73,2.189,8.104,6.447,12.365
				c4.259,4.256,11.12,8.637,16.208,4.732c5.088-3.902,6.566-10.588,6.802-12.48c0.237-1.895,3.465-4.816,5.416-5.35
				c1.953-0.531,6.141-6.043-0.44-12.623L94.248,43.11l-3.38-3.381L69.397,61.024z"/>
		</defs>
		<clipPath id="SVGID_2_">
			<use xlink:href="#SVGID_1_"  overflow="visible"/>
		</clipPath>
		<g clip-path="url(#SVGID_2_)">
			<path fill="#E8515D" d="M25.744,73.385c0,0,23.902-12.911,27.452-14.444c3.548-1.531,7.644-0.224,7.726,4.534l5.515-4.792
				c0,0,3.08-3.55,8.243-0.452c5.163,3.098,6.536,1.72,8.794,0.268c2.259-1.451,19.127-14.284,20.292-15.817l-1.553,55.177H29.43
				L25.744,73.385z"/>
		</g>
	</g>
	<g>
		
			<rect x="85.399" y="40.854" transform="matrix(0.7076 0.7066 -0.7066 0.7076 54.6945 -48.4593)" fill="#E5283C" width="1.003" height="2.008"/>
	</g>
	<g>
		
			<rect x="87.884" y="38.371" transform="matrix(0.7081 0.7061 -0.7061 0.7081 53.6026 -50.9165)" fill="#E5283C" width="1.004" height="2.007"/>
	</g>
	<g>
		<defs>
			<path id="SVGID_3_" d="M69.397,61.024c0,0-5.028-4.287-9.108-3.047c-4.083,1.244-4.378,5.693-4.378,5.693
				s-0.698,2.621-5.407,3.117c-4.707,0.498-12.455,6.359-12.1,11.09c0.354,4.73,2.189,8.104,6.447,12.365
				c4.259,4.256,11.12,8.637,16.208,4.732c5.088-3.902,6.566-10.588,6.802-12.48c0.237-1.895,3.465-4.816,5.416-5.35
				c1.953-0.531,6.141-6.043-0.44-12.623L94.248,43.11l-3.38-3.381L69.397,61.024z"/>
		</defs>
		<clipPath id="SVGID_4_">
			<use xlink:href="#SVGID_3_"  overflow="visible"/>
		</clipPath>
		<g clip-path="url(#SVGID_4_)">
			<path fill="#E8515D" d="M22.634,79.262c0,0,28.247-15.501,32.443-17.314c4.193-1.812,9.034-0.388,9.131,5.233l6.519-5.72
				c0,0,3.639-4.226,9.741-0.565c6.101,3.66,7.724,2.017,10.393,0.3c2.669-1.715,22.604-16.399,23.98-18.212l-1.835,60.874H26.991
				L22.634,79.262z"/>
		</g>
	</g>
	<g>
		<path fill="#FFFFFF" d="M65.612,75.519c-1.764,1.76-4.625,1.76-6.39-0.004c-1.762-1.762-1.762-4.623,0-6.387
			c1.765-1.764,4.626-1.764,6.39-0.002C67.375,70.892,67.375,73.753,65.612,75.519z"/>
	</g>
	<g>
		
			<rect x="89.657" y="50.085" transform="matrix(0.7076 0.7066 -0.7066 0.7076 62.4605 -48.7696)" fill="#E5283C" width="1.003" height="2.004"/>
	</g>
	<g>
		
			<rect x="92.141" y="47.599" transform="matrix(0.7074 0.7069 -0.7069 0.7074 61.4656 -51.2619)" fill="#E5283C" width="1.003" height="2.007"/>
	</g>
	<g>
		
			<rect x="94.625" y="45.115" transform="matrix(0.7059 0.7083 -0.7083 0.7059 60.6415 -53.8159)" fill="#E5283C" width="1.004" height="2.006"/>
	</g>
	<g>
		
			<rect x="82.914" y="43.338" transform="matrix(0.7076 0.7066 -0.7066 0.7076 55.7233 -45.9768)" fill="#E5283C" width="1.003" height="2.009"/>
	</g>
	<g>
		
			<rect x="51.197" y="77.761" transform="matrix(0.7069 0.7073 -0.7073 0.7069 72.4654 -16.2583)" fill="#FFFFFF" width="9.309" height="3.102"/>
	</g>
	<g>
		
			<rect x="83.144" y="47.818" transform="matrix(0.7071 0.7071 -0.7071 0.7071 59.3949 -46.2046)" fill="#FFFFFF" width="4.654" height="1.552"/>
	</g>
	<g>
		<g>
			<path fill="#010202" d="M32.031,101.153c-18.166-19.135-17.88-49.473,0.886-68.236c17.563-17.564,45.264-18.937,64.43-4.146
				l12.045-1.721l1.599-11.203C84.483-6.503,44.7-5.218,19.741,19.741c-26.017,26.018-26.312,68.145-0.92,94.549l1.641-11.484
				L32.031,101.153z"/>
		</g>
		<g>
			<path fill="#010202" d="M116.179,20.71l-1.64,11.486l-11.57,1.652c18.166,19.135,17.879,49.471-0.885,68.236
				c-17.564,17.562-45.264,18.936-64.431,4.146l-12.045,1.721l-1.6,11.201c26.508,22.352,66.292,21.066,91.249-3.895
				C141.276,89.241,141.571,47.116,116.179,20.71z"/>
		</g>
	</g>
</g>
</svg>
