<?xml version="1.0" encoding="utf-8"?>
<!-- Generator: Adobe Illustrator 17.0.0, SVG Export Plug-In . SVG Version: 6.00 Build 0)  -->
<!DOCTYPE svg PUBLIC "-//W3C//DTD SVG 1.1//EN" "http://www.w3.org/Graphics/SVG/1.1/DTD/svg11.dtd">
<svg version="1.1" id="Layer_1" xmlns="http://www.w3.org/2000/svg" xmlns:xlink="http://www.w3.org/1999/xlink" x="0px" y="0px"
	 width="960px" height="299.789px" viewBox="0 0 960 299.789" enable-background="new 0 0 960 299.789" xml:space="preserve">
<rect x="-198" y="-0.211" fill="#E5263B" width="1400" height="300"/>
<g>
	<defs>
		<rect id="SVGID_1_" x="-177" y="-0.211" width="1400" height="300"/>
	</defs>
	<clipPath id="SVGID_2_">
		<use xlink:href="#SVGID_1_"  overflow="visible"/>
	</clipPath>
	<path clip-path="url(#SVGID_2_)" fill="#E8515D" d="M5.834,296.454c0,0,312.487-167.111,358.903-187.153
		c46.387-20.041,99.94-2.111,101.01,60.095l72.108-62.206c0,0,40.261-46.209,107.76-5.709
		c67.499,40.499,85.443,22.584,114.971,3.598C790.113,86.108,1010.644-84.959,1025.868-105l-20.294,664.789H54.035L5.834,296.454z"
		/>
	<rect x="1002" y="-12.211" clip-path="url(#SVGID_2_)" fill="#E8515D" width="221" height="324"/>
</g>
<g>
	<path fill="#FFFFFF" d="M809.683,268.132c0,0,3.103-6.944,13.149-12.853c10.046-5.91,29.399-15.218,29.399-15.218
		s13.002-4.137,13.593,8.569c0,0,7.092-6.058,9.455-8.273c2.364-2.217,9.308-6.501,18.173-0.296
		c8.864,6.205,17.876-1.773,27.627-9.307l5.909-5.171c0,0,2.808-1.182,1.478,1.774c-1.329,2.955-7.83,11.228-22.899,20.24
		c0,0-2.66,2.426-10.784-0.855c-8.127-3.281-10.638-5.35-16.548-1.213c-5.91,4.137-10.194,10.046-10.194,10.046
		s-5.613,5.614-6.796-1.034c-1.182-6.648-2.757-12.262-10.391-8.421c-7.633,3.841-18.566,9.16-29.942,16.103
		c0,0-4.875,3.841-6.352,5.91C813.081,270.201,808.021,270.85,809.683,268.132z"/>
	<g>
		<path fill="#FFFFFF" d="M888.902,260.675c-0.655-0.457-1.433-0.686-2.335-0.686c-0.771,0-1.429,0.144-1.977,0.433
			c-0.547,0.289-0.998,0.677-1.353,1.164c-0.355,0.487-0.617,1.043-0.784,1.669c-0.169,0.626-0.253,1.275-0.253,1.948
			c0,0.733,0.084,1.428,0.253,2.083c0.167,0.655,0.429,1.227,0.784,1.713c0.354,0.487,0.809,0.875,1.361,1.164
			c0.554,0.289,1.215,0.433,1.985,0.433c0.564,0,1.066-0.094,1.505-0.28c0.44-0.186,0.818-0.445,1.138-0.775
			c0.317-0.331,0.568-0.725,0.748-1.182c0.181-0.456,0.289-0.95,0.325-1.478h1.713c-0.168,1.624-0.728,2.886-1.678,3.788
			c-0.949,0.901-2.248,1.353-3.896,1.353c-0.998,0-1.87-0.171-2.615-0.514c-0.746-0.343-1.364-0.815-1.857-1.416
			c-0.494-0.601-0.863-1.311-1.109-2.129c-0.246-0.818-0.37-1.696-0.37-2.634c0-0.938,0.132-1.818,0.398-2.643
			c0.264-0.824,0.652-1.543,1.163-2.156c0.511-0.613,1.148-1.097,1.911-1.452c0.764-0.355,1.639-0.532,2.626-0.532
			c0.673,0,1.309,0.09,1.912,0.27c0.601,0.181,1.136,0.445,1.605,0.794c0.468,0.349,0.859,0.785,1.172,1.308
			c0.313,0.523,0.518,1.127,0.613,1.814h-1.714C889.982,261.817,889.558,261.132,888.902,260.675z"/>
		<path fill="#FFFFFF" d="M897.019,274.113c-0.174,0.313-0.366,0.568-0.576,0.767c-0.211,0.198-0.442,0.342-0.694,0.433
			c-0.253,0.09-0.554,0.135-0.901,0.135c-0.181,0-0.361-0.012-0.542-0.036c-0.18-0.024-0.354-0.066-0.523-0.126v-1.407
			c0.144,0.048,0.292,0.096,0.442,0.144c0.15,0.048,0.304,0.072,0.46,0.072c0.312,0,0.565-0.072,0.758-0.216
			c0.192-0.145,0.36-0.355,0.505-0.632l0.631-1.569l-3.698-9.272h1.732l2.725,7.63h0.035l2.616-7.63h1.624l-4.06,10.553
			C897.371,273.416,897.193,273.801,897.019,274.113z"/>
		<path fill="#FFFFFF" d="M904.298,262.406v1.966h0.036c0.373-0.757,0.83-1.317,1.371-1.677c0.541-0.361,1.227-0.529,2.057-0.506
			v1.623c-0.613,0-1.136,0.085-1.57,0.253c-0.432,0.168-0.781,0.415-1.045,0.74c-0.265,0.324-0.457,0.719-0.578,1.182
			c-0.12,0.463-0.18,0.995-0.18,1.596v4.149h-1.534v-9.326H904.298z"/>
		<path fill="#FFFFFF" d="M915.193,271.137c-0.697,0.529-1.575,0.794-2.634,0.794c-0.746,0-1.392-0.12-1.938-0.361
			c-0.548-0.24-1.008-0.577-1.381-1.01c-0.373-0.433-0.652-0.95-0.838-1.552c-0.186-0.601-0.292-1.256-0.315-1.966
			c0-0.709,0.107-1.358,0.324-1.948c0.216-0.589,0.521-1.1,0.911-1.533c0.391-0.433,0.853-0.77,1.389-1.01
			c0.535-0.24,1.122-0.361,1.759-0.361c0.83,0,1.519,0.172,2.065,0.515c0.547,0.343,0.986,0.779,1.317,1.308
			c0.33,0.53,0.56,1.106,0.685,1.732c0.127,0.625,0.178,1.221,0.153,1.786h-6.981c-0.012,0.409,0.037,0.797,0.146,1.164
			c0.108,0.367,0.282,0.692,0.523,0.974c0.241,0.283,0.547,0.509,0.92,0.677c0.373,0.169,0.812,0.253,1.317,0.253
			c0.649,0,1.183-0.15,1.596-0.451c0.415-0.301,0.689-0.758,0.821-1.372h1.516C916.342,269.821,915.891,270.608,915.193,271.137z
			 M914.824,265.148c-0.139-0.325-0.326-0.604-0.56-0.839c-0.234-0.234-0.512-0.421-0.83-0.559
			c-0.318-0.138-0.671-0.207-1.055-0.207c-0.397,0-0.755,0.069-1.073,0.207c-0.319,0.138-0.592,0.328-0.82,0.568
			c-0.23,0.24-0.409,0.52-0.542,0.839c-0.133,0.318-0.21,0.658-0.235,1.019h5.358C915.043,265.816,914.962,265.473,914.824,265.148z
			"/>
		<path fill="#FFFFFF" d="M919.722,262.406v1.479h0.036c0.637-1.13,1.647-1.696,3.029-1.696c0.614,0,1.125,0.085,1.534,0.253
			c0.409,0.168,0.739,0.403,0.991,0.704c0.254,0.301,0.431,0.658,0.532,1.073c0.103,0.415,0.153,0.875,0.153,1.38v6.133h-1.533
			v-6.314c0-0.577-0.168-1.034-0.505-1.371c-0.337-0.336-0.8-0.505-1.389-0.505c-0.47,0-0.875,0.072-1.217,0.216
			c-0.344,0.145-0.63,0.349-0.858,0.613c-0.229,0.265-0.399,0.574-0.514,0.929c-0.114,0.355-0.171,0.743-0.171,1.164v5.267h-1.533
			v-9.326H919.722z"/>
		<path fill="#FFFFFF" d="M928.398,260.729v-1.876h1.533v1.876H928.398z M929.931,262.406v9.326h-1.533v-9.326H929.931z"/>
		<path fill="#FFFFFF" d="M939.473,271.931c-0.397,0-0.713-0.111-0.947-0.334c-0.233-0.222-0.351-0.586-0.351-1.092
			c-0.422,0.505-0.911,0.87-1.471,1.092c-0.56,0.223-1.163,0.334-1.812,0.334c-0.422,0-0.818-0.045-1.19-0.135
			c-0.374-0.091-0.701-0.241-0.983-0.452c-0.283-0.21-0.505-0.48-0.667-0.811c-0.163-0.331-0.244-0.731-0.244-1.2
			c0-0.529,0.09-0.962,0.272-1.299c0.18-0.336,0.417-0.61,0.711-0.82c0.296-0.21,0.632-0.37,1.011-0.478s0.767-0.199,1.163-0.271
			c0.422-0.085,0.821-0.147,1.199-0.189c0.38-0.043,0.713-0.102,1.003-0.181c0.288-0.078,0.516-0.192,0.685-0.343
			c0.169-0.15,0.253-0.37,0.253-0.658c0-0.336-0.063-0.607-0.19-0.812c-0.126-0.204-0.288-0.36-0.486-0.469
			c-0.198-0.108-0.422-0.18-0.668-0.216c-0.246-0.036-0.49-0.054-0.731-0.054c-0.648,0-1.19,0.124-1.624,0.37
			c-0.432,0.247-0.667,0.712-0.702,1.398h-1.533c0.023-0.577,0.143-1.065,0.36-1.461c0.216-0.397,0.506-0.718,0.865-0.965
			c0.36-0.247,0.776-0.424,1.246-0.532c0.468-0.108,0.961-0.163,1.478-0.163c0.422,0,0.839,0.03,1.254,0.091
			c0.415,0.061,0.791,0.184,1.128,0.369c0.337,0.187,0.607,0.449,0.811,0.785c0.205,0.337,0.307,0.776,0.307,1.317v4.798
			c0,0.361,0.021,0.625,0.064,0.793c0.042,0.169,0.183,0.253,0.424,0.253c0.132,0,0.288-0.03,0.469-0.091v1.191
			C940.308,271.853,939.942,271.931,939.473,271.931z M937.326,267.232c-0.312,0.066-0.641,0.12-0.982,0.162
			c-0.344,0.043-0.69,0.09-1.038,0.145c-0.349,0.054-0.66,0.142-0.938,0.261c-0.276,0.121-0.502,0.292-0.677,0.514
			c-0.175,0.223-0.262,0.526-0.262,0.911c0,0.253,0.052,0.466,0.153,0.641c0.102,0.174,0.235,0.315,0.398,0.424
			c0.162,0.108,0.353,0.186,0.576,0.235c0.224,0.048,0.448,0.072,0.677,0.072c0.506,0,0.938-0.07,1.3-0.207
			c0.36-0.138,0.655-0.313,0.883-0.523c0.228-0.211,0.397-0.439,0.506-0.686c0.108-0.246,0.163-0.477,0.163-0.694v-1.57
			C937.891,267.061,937.639,267.166,937.326,267.232z"/>
		<path fill="#FFFFFF" d="M943.441,262.406v1.479h0.036c0.638-1.13,1.648-1.696,3.031-1.696c0.612,0,1.124,0.085,1.532,0.253
			c0.409,0.168,0.74,0.403,0.993,0.704c0.251,0.301,0.429,0.658,0.532,1.073c0.102,0.415,0.152,0.875,0.152,1.38v6.133h-1.532
			v-6.314c0-0.577-0.17-1.034-0.507-1.371c-0.336-0.336-0.8-0.505-1.388-0.505c-0.47,0-0.874,0.072-1.218,0.216
			c-0.343,0.145-0.629,0.349-0.857,0.613c-0.229,0.265-0.399,0.574-0.514,0.929c-0.114,0.355-0.172,0.743-0.172,1.164v5.267h-1.533
			v-9.326H943.441z"/>
		<path fill="#FFFFFF" d="M953.2,269.649c0.145,0.234,0.334,0.421,0.569,0.56c0.234,0.138,0.498,0.237,0.793,0.297
			c0.294,0.061,0.598,0.091,0.911,0.091c0.24,0,0.493-0.018,0.758-0.054c0.264-0.037,0.507-0.102,0.729-0.199
			c0.224-0.096,0.406-0.237,0.551-0.424c0.145-0.186,0.217-0.424,0.217-0.712c0-0.397-0.15-0.697-0.451-0.902
			c-0.301-0.204-0.677-0.37-1.127-0.496c-0.451-0.126-0.942-0.241-1.471-0.343c-0.529-0.102-1.019-0.247-1.47-0.433
			c-0.452-0.186-0.827-0.448-1.128-0.785c-0.301-0.336-0.45-0.806-0.45-1.407c0-0.469,0.105-0.871,0.315-1.209
			c0.211-0.337,0.481-0.61,0.812-0.82c0.331-0.211,0.704-0.367,1.119-0.469c0.414-0.102,0.827-0.154,1.235-0.154
			c0.529,0,1.017,0.046,1.461,0.136c0.446,0.09,0.84,0.247,1.182,0.469c0.343,0.223,0.616,0.523,0.821,0.902
			c0.205,0.379,0.324,0.851,0.361,1.416h-1.534c-0.024-0.3-0.102-0.55-0.233-0.748c-0.133-0.199-0.302-0.357-0.507-0.478
			c-0.203-0.121-0.429-0.207-0.676-0.262c-0.246-0.054-0.495-0.081-0.749-0.081c-0.228,0-0.459,0.018-0.693,0.054
			c-0.235,0.036-0.449,0.099-0.641,0.189c-0.193,0.09-0.35,0.211-0.47,0.361c-0.12,0.151-0.18,0.346-0.18,0.587
			c0,0.264,0.093,0.484,0.279,0.658c0.187,0.175,0.424,0.319,0.712,0.433c0.289,0.114,0.614,0.21,0.975,0.289
			c0.361,0.079,0.722,0.16,1.083,0.243c0.384,0.085,0.761,0.187,1.127,0.307c0.366,0.121,0.691,0.28,0.974,0.478
			c0.283,0.199,0.512,0.448,0.685,0.749c0.174,0.301,0.262,0.674,0.262,1.118c0,0.565-0.117,1.035-0.352,1.407
			c-0.234,0.373-0.541,0.674-0.92,0.902c-0.379,0.228-0.806,0.388-1.281,0.478c-0.475,0.09-0.946,0.135-1.415,0.135
			c-0.518,0-1.011-0.054-1.479-0.163c-0.47-0.108-0.884-0.285-1.245-0.532c-0.36-0.246-0.649-0.571-0.866-0.974
			c-0.216-0.403-0.337-0.893-0.36-1.47h1.534C952.977,269.129,953.057,269.415,953.2,269.649z"/>
	</g>
</g>
</svg>
