<?xml version="1.0" encoding="utf-8"?>
<!-- Generator: Adobe Illustrator 17.0.0, SVG Export Plug-In . SVG Version: 6.00 Build 0)  -->
<!DOCTYPE svg PUBLIC "-//W3C//DTD SVG 1.1//EN" "http://www.w3.org/Graphics/SVG/1.1/DTD/svg11.dtd">
<svg version="1.1" id="Layer_1" xmlns="http://www.w3.org/2000/svg" xmlns:xlink="http://www.w3.org/1999/xlink" x="0px" y="0px"
	 width="135px" height="135.001px" viewBox="0 0 135 135.001" enable-background="new 0 0 135 135.001" xml:space="preserve">
<g>
	<g>
		<g>
			<path fill="#E5283C" d="M90.808,90.466c0,0.643-0.522,1.164-1.165,1.164H46.973c-0.643,0-1.165-0.521-1.165-1.164V47.794
				c0-0.643,0.521-1.164,1.165-1.164h42.671c0.643,0,1.165,0.521,1.165,1.164V90.466z"/>
		</g>
		<g>
			<defs>
				<path id="SVGID_1_" d="M90.808,90.466c0,0.643-0.522,1.164-1.165,1.164H46.973c-0.643,0-1.165-0.521-1.165-1.164V47.794
					c0-0.643,0.521-1.164,1.165-1.164h42.671c0.643,0,1.165,0.521,1.165,1.164V90.466z"/>
			</defs>
			<clipPath id="SVGID_2_">
				<use xlink:href="#SVGID_1_"  overflow="visible"/>
			</clipPath>
			<g clip-path="url(#SVGID_2_)">
				<path fill="#E8515D" d="M39.808,69.909c0,0,12.235-6.452,15.784-7.985c3.55-1.533,7.731-0.161,7.811,4.597l5.561-4.758
					c0,0,3.101-3.534,8.264-0.437c5.161,3.098,6.427,1.728,8.686,0.275c2.258-1.451,8.895-6.13,9.895-7.663V96.63h-56V69.909z"/>
			</g>
		</g>
		<g>
			<path fill="#E5283C" d="M92.808,43.466c0,0.643-0.521,1.164-1.164,1.164H45.972c-0.643,0-1.164-0.521-1.164-1.164v-0.672
				c0-0.643,0.521-1.164,1.164-1.164h45.672c0.643,0,1.164,0.521,1.164,1.164V43.466z"/>
		</g>
		<g>
			<path fill="#FFFFFF" d="M88.808,60.465c0,0.643-0.522,1.165-1.165,1.165H48.973c-0.643,0-1.165-0.521-1.165-1.165v-10.67
				c0-0.644,0.521-1.165,1.165-1.165h38.671c0.643,0,1.165,0.521,1.165,1.165V60.465z M87.655,60.664v0.582V60.664L87.655,60.664z
				 M48.808,50.63v10h39v-10H48.808z"/>
		</g>
		<g>
			<circle fill="#FFFFFF" cx="68.353" cy="55.346" r="1.747"/>
		</g>
		<g>
			<path fill="#FFFFFF" d="M88.808,74.465c0,0.644-0.522,1.165-1.165,1.165H48.973c-0.643,0-1.165-0.521-1.165-1.165v-10.67
				c0-0.644,0.521-1.165,1.165-1.165h38.671c0.643,0,1.165,0.521,1.165,1.165V74.465z M87.655,74.638v0.583V74.638L87.655,74.638z
				 M48.808,64.63v10h39v-10H48.808z"/>
		</g>
		<g>
			<circle fill="#FFFFFF" cx="68.353" cy="69.32" r="1.747"/>
		</g>
		<g>
			<path fill="#FFFFFF" d="M88.808,88.466c0,0.643-0.522,1.164-1.165,1.164H48.973c-0.643,0-1.165-0.521-1.165-1.164V77.794
				c0-0.643,0.521-1.164,1.165-1.164h38.671c0.643,0,1.165,0.521,1.165,1.164V88.466z M87.655,88.613v0.582V88.613L87.655,88.613z
				 M48.808,78.63v10h39v-10H48.808z"/>
		</g>
		<g>
			<circle fill="#FFFFFF" cx="68.353" cy="83.294" r="1.747"/>
		</g>
	</g>
	<g>
		<g>
			<path fill="#010202" d="M32.031,101.153c-18.166-19.135-17.88-49.472,0.886-68.236c17.563-17.563,45.264-18.937,64.43-4.146
				l12.045-1.721l1.599-11.203C84.483-6.504,44.7-5.217,19.741,19.742c-26.017,26.018-26.312,68.145-0.92,94.549l1.641-11.485
				L32.031,101.153z"/>
		</g>
		<g>
			<path fill="#010202" d="M116.179,20.71l-1.64,11.485l-11.57,1.652c18.166,19.135,17.879,49.472-0.885,68.235
				c-17.564,17.563-45.264,18.938-64.431,4.147l-12.045,1.721l-1.6,11.202c26.508,22.352,66.292,21.065,91.249-3.896
				C141.277,89.242,141.571,47.116,116.179,20.71z"/>
		</g>
	</g>
</g>
</svg>
