<?xml version="1.0" encoding="utf-8"?>
<!-- Generator: Adobe Illustrator 17.0.0, SVG Export Plug-In . SVG Version: 6.00 Build 0)  -->
<!DOCTYPE svg PUBLIC "-//W3C//DTD SVG 1.1//EN" "http://www.w3.org/Graphics/SVG/1.1/DTD/svg11.dtd">
<svg version="1.1" id="Layer_1" xmlns="http://www.w3.org/2000/svg" xmlns:xlink="http://www.w3.org/1999/xlink" x="0px" y="0px"
	 width="135px" height="135.001px" viewBox="0 0 135 135.001" enable-background="new 0 0 135 135.001" xml:space="preserve">
<g>
	<g>
		<g>
			<path fill="#010202" d="M32.031,101.153c-18.165-19.135-17.88-49.472,0.887-68.236C50.48,15.353,78.181,13.98,97.346,28.771
				l12.046-1.721l1.599-11.203C84.484-6.504,44.699-5.217,19.741,19.742c-26.018,26.018-26.312,68.145-0.92,94.549l1.641-11.485
				L32.031,101.153z"/>
		</g>
		<g>
			<path fill="#010202" d="M116.178,20.71l-1.64,11.485l-11.569,1.652c18.165,19.135,17.879,49.472-0.885,68.235
				c-17.564,17.563-45.265,18.938-64.431,4.147l-12.045,1.721l-1.601,11.202c26.508,22.352,66.292,21.065,91.249-3.896
				C141.277,89.242,141.572,47.116,116.178,20.71z"/>
		</g>
	</g>
	<g>
		<g>
			<path fill="#E8515D" d="M58.151,96.541c0,0-0.489-3.292,3.258-3.292h13.357c0,0,2.524-0.094,2.524,3.292H58.151z"/>
		</g>
		<g>
			<rect x="65.481" y="72.562" fill="#E8515D" width="4.316" height="20.688"/>
		</g>
		<g>
			<path fill="#E8515D" d="M93.498,69.03c0,0.871-0.705,1.577-1.577,1.577H43.44c-0.873,0-1.578-0.706-1.578-1.577l0,0
				c0-0.872,0.705-1.578,1.578-1.578h48.481C92.793,67.452,93.498,68.158,93.498,69.03L93.498,69.03z"/>
		</g>
		<g>
			<path fill="#E5283C" d="M80.224,39.939c0,0.872-0.342,1.578-0.763,1.578h-23.4c-0.421,0-0.761-0.706-0.761-1.578l0,0
				c0-0.871,0.34-1.577,0.761-1.577h23.4C79.882,38.362,80.224,39.068,80.224,39.939L80.224,39.939z"/>
		</g>
		<g>
			<polygon fill="#E5283C" points="79.245,41.517 56.359,41.517 44.141,67.452 91.462,67.452 			"/>
		</g>
		<g>
			<rect x="79.083" y="70.607" fill="#E8515D" width="2.117" height="12.299"/>
		</g>
		<g>
			<circle fill="#E8515D" cx="80.141" cy="84.128" r="2.037"/>
		</g>
		<g>
			<defs>
				<polygon id="SVGID_1_" points="79.245,41.517 56.359,41.517 44.141,67.452 91.462,67.452 				"/>
			</defs>
			<clipPath id="SVGID_2_">
				<use xlink:href="#SVGID_1_"  overflow="visible"/>
			</clipPath>
			<g clip-path="url(#SVGID_2_)">
				<path fill="#E8515D" d="M25.743,73.308c0,0,23.901-12.872,27.452-14.405c3.548-1.532,7.645-0.206,7.726,4.552l5.516-4.78
					c0,0,3.08-3.546,8.243-0.448c5.162,3.098,6.535,1.723,8.794,0.271c2.258-1.451,19.126-14.359,20.291-15.893l-1.553,51.026H29.43
					L25.743,73.308z"/>
			</g>
		</g>
	</g>
</g>
</svg>
