<?xml version="1.0" encoding="utf-8"?>
<!-- Generator: Adobe Illustrator 17.0.0, SVG Export Plug-In . SVG Version: 6.00 Build 0)  -->
<!DOCTYPE svg PUBLIC "-//W3C//DTD SVG 1.1//EN" "http://www.w3.org/Graphics/SVG/1.1/DTD/svg11.dtd">
<svg version="1.1" id="Layer_1" xmlns="http://www.w3.org/2000/svg" xmlns:xlink="http://www.w3.org/1999/xlink" x="0px" y="0px"
	 width="135px" height="135.001px" viewBox="0 0 135 135.001" enable-background="new 0 0 135 135.001" xml:space="preserve">
<g>
	<g>
		<g>
			<path fill="#010202" d="M32.03,101.153c-18.165-19.135-17.88-49.473,0.887-68.236c17.562-17.564,45.264-18.937,64.429-4.146
				l12.046-1.721l1.599-11.203C84.483-6.503,44.699-5.218,19.741,19.741c-26.017,26.018-26.312,68.145-0.92,94.549l1.641-11.484
				L32.03,101.153z"/>
		</g>
		<g>
			<path fill="#010202" d="M116.178,20.71l-1.64,11.486l-11.569,1.652c18.165,19.135,17.879,49.471-0.885,68.234
				c-17.564,17.564-45.265,18.938-64.431,4.148l-12.046,1.721l-1.6,11.201c26.508,22.352,66.292,21.066,91.249-3.895
				C141.276,89.241,141.571,47.116,116.178,20.71z"/>
		</g>
	</g>
	<g>
		<g>
			<path fill="#E5283C" d="M52.171,52.118c0.734-2.125,1.821-3.936,3.266-5.428c1.44-1.494,3.189-2.658,5.244-3.488
				c2.055-0.83,4.406-1.248,7.047-1.248c2.054,0,3.971,0.305,5.764,0.92c1.778,0.609,3.361,1.504,4.729,2.676
				c1.368,1.176,2.448,2.592,3.23,4.258c0.782,1.66,1.17,3.57,1.17,5.721c0,2.742-0.597,5.064-1.798,6.975
				c-1.193,1.906-2.722,3.74-4.585,5.502c-1.517,1.516-2.725,2.705-3.632,3.559c-0.908,0.859-1.576,1.701-2.017,2.531
				c-0.442,0.838-0.734,1.852-0.878,3.047c-0.15,1.199-0.246,2.926-0.294,5.172h-4.628c-0.048-2.246,0.077-4.133,0.371-5.65
				c0.292-1.516,0.77-2.885,1.427-4.107c0.663-1.225,1.547-2.395,2.646-3.525c1.099-1.121,2.429-2.393,4-3.814
				c1.367-1.273,2.502-2.688,3.41-4.254c0.902-1.564,1.355-3.301,1.355-5.213c0-1.469-0.28-2.812-0.842-4.037
				c-0.562-1.219-1.319-2.256-2.275-3.117c-0.955-0.853-2.066-1.529-3.338-2.017c-1.272-0.49-2.615-0.734-4.037-0.734
				c-1.959,0-3.697,0.346-5.208,1.027c-1.518,0.686-2.765,1.629-3.744,2.824c-0.98,1.199-1.715,2.609-2.204,4.223
				c-0.49,1.611-0.71,3.373-0.657,5.283h-4.621C51.072,56.61,51.435,54.243,52.171,52.118z M70.224,87.669v7.783h-6.162v-7.783
				H70.224z"/>
		</g>
	</g>
	<g>
		<defs>
			<path id="SVGID_1_" d="M52.171,52.118c0.734-2.125,1.821-3.936,3.266-5.428c1.44-1.494,3.189-2.658,5.244-3.488
				c2.055-0.83,4.406-1.248,7.047-1.248c2.054,0,3.971,0.305,5.764,0.92c1.778,0.609,3.361,1.504,4.729,2.676
				c1.368,1.176,2.448,2.592,3.23,4.258c0.782,1.66,1.17,3.57,1.17,5.721c0,2.742-0.597,5.064-1.798,6.975
				c-1.193,1.906-2.722,3.74-4.585,5.502c-1.517,1.516-2.725,2.705-3.632,3.559c-0.908,0.859-1.576,1.701-2.017,2.531
				c-0.442,0.838-0.734,1.852-0.878,3.047c-0.15,1.199-0.246,2.926-0.294,5.172h-4.628c-0.048-2.246,0.077-4.133,0.371-5.65
				c0.292-1.516,0.77-2.885,1.427-4.107c0.663-1.225,1.547-2.395,2.646-3.525c1.099-1.121,2.429-2.393,4-3.814
				c1.367-1.273,2.502-2.688,3.41-4.254c0.902-1.564,1.355-3.301,1.355-5.213c0-1.469-0.28-2.812-0.842-4.037
				c-0.562-1.219-1.319-2.256-2.275-3.117c-0.955-0.853-2.066-1.529-3.338-2.017c-1.272-0.49-2.615-0.734-4.037-0.734
				c-1.959,0-3.697,0.346-5.208,1.027c-1.518,0.686-2.765,1.629-3.744,2.824c-0.98,1.199-1.715,2.609-2.204,4.223
				c-0.49,1.611-0.71,3.373-0.657,5.283h-4.621C51.072,56.61,51.435,54.243,52.171,52.118z M70.224,87.669v7.783h-6.162v-7.783
				H70.224z"/>
		</defs>
		<clipPath id="SVGID_2_">
			<use xlink:href="#SVGID_1_"  overflow="visible"/>
		</clipPath>
		<g clip-path="url(#SVGID_2_)">
			<path fill="#E8515D" d="M41.808,73.112c0,0,12.225-6.453,15.775-7.986c3.548-1.533,7.725-0.162,7.805,4.596l5.558-4.758
				c0,0,3.1-3.533,8.263-0.436c5.16,3.098,6.436,1.727,8.694,0.275c2.259-1.451,8.905-6.131,9.905-7.664v43.719h-56V73.112z"/>
		</g>
	</g>
</g>
</svg>
