<?xml version="1.0" encoding="utf-8"?>
<!-- Generator: Adobe Illustrator 17.0.0, SVG Export Plug-In . SVG Version: 6.00 Build 0)  -->
<!DOCTYPE svg PUBLIC "-//W3C//DTD SVG 1.1//EN" "http://www.w3.org/Graphics/SVG/1.1/DTD/svg11.dtd">
<svg version="1.1" id="Layer_1" xmlns="http://www.w3.org/2000/svg" xmlns:xlink="http://www.w3.org/1999/xlink" x="0px" y="0px"
	 width="135px" height="135.001px" viewBox="0 0 135 135.001" enable-background="new 0 0 135 135.001" xml:space="preserve">
<g>
	<g>
		<g>
			<path fill="#E5283C" d="M83.024,93.63c0.64,0,0.784-1.001,0.784-1.642v-6.029c0-7.191,5.586-12.958,8.027-18.354
				c2.44-5.395,2.793-16.556-1.832-21.179C85.379,41.8,75.92,42.731,75.92,42.731c-14.258-5.524-21.129,1.539-21.129,1.539
				c-0.446,0.458-1.278,1.052-1.859,1.32l-6.227,2.871c-0.582,0.268-0.68,0.854-0.222,1.301c0,0,5.205,5.08,3.792,17.412
				c-1.412,12.33-1.317,17.56-1.317,17.56c0.039,0.639-0.149,1.687-0.149,2.326v4.929c0,0.641,0.966,1.642,1.606,1.642H83.024z"/>
		</g>
		<g>
			<defs>
				<path id="SVGID_1_" d="M82.916,93.63c0.64,0,0.892-1.013,0.892-1.652v-6.019c0-7.191,5.585-12.958,8.026-18.354
					c2.44-5.395,2.794-16.556-1.831-21.179C85.379,41.8,75.92,42.731,75.92,42.731c-14.258-5.524-21.129,1.537-21.129,1.537
					c-0.446,0.46-1.281,1.054-1.862,1.322l-6.226,2.871c-0.582,0.268-0.684,0.855-0.226,1.305c0,0,5.159,5.076,3.745,17.408
					c-1.413,12.33-1.306,17.559-1.306,17.559c0.034,0.64-0.107,1.688-0.107,2.327v4.918c0,0.64,0.862,1.652,1.502,1.652H82.916z"/>
			</defs>
			<clipPath id="SVGID_2_">
				<use xlink:href="#SVGID_1_"  overflow="visible"/>
			</clipPath>
			<g clip-path="url(#SVGID_2_)">
				<path fill="#E8515D" d="M96.808,69.859c0,0-11.823-6.451-15.371-7.984c-3.55-1.533-7.526-0.161-7.606,4.597l-5.456-4.758
					c0,0-3.05-3.534-8.213-0.437c-5.162,3.098-6.813,1.726-9.071,0.275c-2.258-1.451-9.283-6.13-10.283-7.663V96.63h56V69.859z"/>
			</g>
		</g>
		<g>
			<path fill="#FFFFFF" d="M83.804,73.242c0,0,5.396-7.578,5.268-14.642c-0.129-7.066-6.809-9.12-9.763-6.68
				C79.308,51.919,83.804,56.159,83.804,73.242z"/>
		</g>
		<g>
			<path fill="#FFFFFF" d="M71.808,62.063c0-2.448-1.984-4.433-4.433-4.433h-0.135c-2.448,0-4.433,1.984-4.433,4.433v15.135
				c0,2.448,1.984,4.433,4.433,4.433h0.135c2.448,0,4.433-1.984,4.433-4.433V62.063z"/>
		</g>
		<g>
			<rect x="48.808" y="87.63" fill="#FFFFFF" width="35" height="1"/>
		</g>
	</g>
	<g>
		<g>
			<path fill="#010202" d="M32.031,101.153c-18.166-19.135-17.88-49.472,0.886-68.236c17.563-17.563,45.264-18.937,64.43-4.146
				l12.045-1.721l1.599-11.203C84.483-6.504,44.7-5.217,19.741,19.742c-26.017,26.018-26.312,68.145-0.92,94.549l1.641-11.485
				L32.031,101.153z"/>
		</g>
		<g>
			<path fill="#010202" d="M116.179,20.71l-1.64,11.485l-11.57,1.652c18.166,19.135,17.879,49.472-0.885,68.235
				c-17.564,17.563-45.264,18.938-64.431,4.147l-12.045,1.721l-1.6,11.202c26.508,22.352,66.292,21.065,91.249-3.896
				C141.277,89.242,141.571,47.116,116.179,20.71z"/>
		</g>
	</g>
</g>
</svg>
