<?xml version="1.0" encoding="utf-8"?>
<!-- Generator: Adobe Illustrator 17.0.0, SVG Export Plug-In . SVG Version: 6.00 Build 0)  -->
<!DOCTYPE svg PUBLIC "-//W3C//DTD SVG 1.1//EN" "http://www.w3.org/Graphics/SVG/1.1/DTD/svg11.dtd">
<svg version="1.1" id="Layer_1" xmlns="http://www.w3.org/2000/svg" xmlns:xlink="http://www.w3.org/1999/xlink" x="0px" y="0px"
	 width="135px" height="135.001px" viewBox="0 0 135 135.001" enable-background="new 0 0 135 135.001" xml:space="preserve">
<g>
	<g>
		<g>
			<path fill="#010202" d="M32.03,101.153c-18.166-19.135-17.879-49.473,0.887-68.236C50.48,15.352,78.18,13.979,97.347,28.77
				l12.045-1.721l1.599-11.203C84.483-6.503,44.699-5.218,19.741,19.741C-6.276,45.759-6.571,87.886,18.821,114.29l1.642-11.484
				L32.03,101.153z"/>
		</g>
		<g>
			<path fill="#010202" d="M116.179,20.71l-1.64,11.486l-11.57,1.652c18.166,19.135,17.879,49.471-0.885,68.236
				c-17.565,17.562-45.265,18.936-64.432,4.146l-12.045,1.721l-1.599,11.201c26.508,22.352,66.292,21.066,91.249-3.895
				C141.277,89.241,141.571,47.116,116.179,20.71z"/>
		</g>
	</g>
	<g>
		<g>
			<path fill="#E5283C" d="M53.544,82.815c0.864,1.777,2.054,3.193,3.564,4.248c1.512,1.057,3.3,1.812,5.365,2.27
				c2.063,0.457,4.271,0.684,6.625,0.684c1.342,0,2.807-0.191,4.392-0.576c1.583-0.383,3.059-0.996,4.428-1.836
				c1.367-0.84,2.506-1.92,3.418-3.24c0.912-1.32,1.369-2.916,1.369-4.787c0-1.441-0.325-2.689-0.973-3.746
				c-0.646-1.055-1.488-1.943-2.521-2.664c-1.032-0.721-2.172-1.307-3.418-1.764c-1.249-0.455-2.475-0.828-3.673-1.115
				l-11.447-2.809c-1.49-0.385-2.943-0.863-4.358-1.439c-1.417-0.576-2.652-1.344-3.707-2.305c-1.058-0.961-1.908-2.137-2.557-3.527
				c-0.648-1.393-0.971-3.098-0.971-5.113c0-1.248,0.239-2.711,0.719-4.392c0.48-1.68,1.381-3.264,2.7-4.752
				c1.322-1.486,3.132-2.748,5.438-3.779c2.304-1.031,5.256-1.549,8.854-1.549c2.545,0,4.97,0.336,7.274,1.008
				c2.304,0.674,4.319,1.682,6.047,3.023c1.729,1.346,3.107,3.014,4.142,5.006c1.03,1.992,1.547,4.309,1.547,6.947h-4.897
				c-0.096-1.969-0.539-3.684-1.331-5.146c-0.792-1.465-1.826-2.69-3.098-3.674c-1.271-0.982-2.736-1.729-4.392-2.232
				c-1.656-0.502-3.396-0.756-5.22-0.756c-1.681,0-3.3,0.18-4.86,0.541c-1.56,0.359-2.927,0.936-4.103,1.727
				c-1.178,0.793-2.125,1.838-2.845,3.133c-0.719,1.297-1.08,2.904-1.08,4.824c0,1.201,0.205,2.244,0.612,3.133
				c0.407,0.889,0.974,1.645,1.692,2.268c0.721,0.625,1.549,1.129,2.486,1.512c0.935,0.387,1.931,0.697,2.986,0.936l12.53,3.098
				c1.824,0.48,3.539,1.068,5.147,1.764c1.608,0.695,3.025,1.561,4.248,2.592c1.224,1.033,2.184,2.293,2.882,3.781
				c0.693,1.486,1.044,3.287,1.044,5.398c0,0.578-0.062,1.346-0.182,2.305c-0.118,0.961-0.407,1.98-0.862,3.061
				c-0.457,1.08-1.105,2.174-1.945,3.275c-0.841,1.105-1.992,2.102-3.457,2.988c-1.465,0.889-3.275,1.609-5.436,2.16
				c-2.161,0.553-4.751,0.828-7.776,0.828c-3.025,0-5.832-0.348-8.424-1.043c-2.593-0.695-4.801-1.766-6.625-3.205
				c-1.824-1.439-3.228-3.287-4.212-5.545c-0.982-2.254-1.403-4.967-1.26-8.135h4.896C52.273,78.833,52.679,81.042,53.544,82.815z"
				/>
		</g>
	</g>
	<g>
		<defs>
			<path id="SVGID_1_" d="M53.544,82.815c0.864,1.777,2.054,3.193,3.564,4.248c1.512,1.057,3.3,1.812,5.365,2.27
				c2.063,0.457,4.271,0.684,6.625,0.684c1.342,0,2.807-0.191,4.392-0.576c1.583-0.383,3.059-0.996,4.428-1.836
				c1.367-0.84,2.506-1.92,3.418-3.24c0.912-1.32,1.369-2.916,1.369-4.787c0-1.441-0.325-2.689-0.973-3.746
				c-0.646-1.055-1.488-1.943-2.521-2.664c-1.032-0.721-2.172-1.307-3.418-1.764c-1.249-0.455-2.475-0.828-3.673-1.115
				l-11.447-2.809c-1.49-0.385-2.943-0.863-4.358-1.439c-1.417-0.576-2.652-1.344-3.707-2.305c-1.058-0.961-1.908-2.137-2.557-3.527
				c-0.648-1.393-0.971-3.098-0.971-5.113c0-1.248,0.239-2.711,0.719-4.392c0.48-1.68,1.381-3.264,2.7-4.752
				c1.322-1.486,3.132-2.748,5.438-3.779c2.304-1.031,5.256-1.549,8.854-1.549c2.545,0,4.97,0.336,7.274,1.008
				c2.304,0.674,4.319,1.682,6.047,3.023c1.729,1.346,3.107,3.014,4.142,5.006c1.03,1.992,1.547,4.309,1.547,6.947h-4.897
				c-0.096-1.969-0.539-3.684-1.331-5.146c-0.792-1.465-1.826-2.69-3.098-3.674c-1.271-0.982-2.736-1.729-4.392-2.232
				c-1.656-0.502-3.396-0.756-5.22-0.756c-1.681,0-3.3,0.18-4.86,0.541c-1.56,0.359-2.927,0.936-4.103,1.727
				c-1.178,0.793-2.125,1.838-2.845,3.133c-0.719,1.297-1.08,2.904-1.08,4.824c0,1.201,0.205,2.244,0.612,3.133
				c0.407,0.889,0.974,1.645,1.692,2.268c0.721,0.625,1.549,1.129,2.486,1.512c0.935,0.387,1.931,0.697,2.986,0.936l12.53,3.098
				c1.824,0.48,3.539,1.068,5.147,1.764c1.608,0.695,3.025,1.561,4.248,2.592c1.224,1.033,2.184,2.293,2.882,3.781
				c0.693,1.486,1.044,3.287,1.044,5.398c0,0.578-0.062,1.346-0.182,2.305c-0.118,0.961-0.407,1.98-0.862,3.061
				c-0.457,1.08-1.105,2.174-1.945,3.275c-0.841,1.105-1.992,2.102-3.457,2.988c-1.465,0.889-3.275,1.609-5.436,2.16
				c-2.161,0.553-4.751,0.828-7.776,0.828c-3.025,0-5.832-0.348-8.424-1.043c-2.593-0.695-4.801-1.766-6.625-3.205
				c-1.824-1.439-3.228-3.287-4.212-5.545c-0.982-2.254-1.403-4.967-1.26-8.135h4.896C52.273,78.833,52.679,81.042,53.544,82.815z"
				/>
		</defs>
		<clipPath id="SVGID_2_">
			<use xlink:href="#SVGID_1_"  overflow="visible"/>
		</clipPath>
		<g clip-path="url(#SVGID_2_)">
			<path fill="#E8515D" d="M25.261,73.353c0,0,23.902-12.896,27.452-14.429c3.548-1.533,7.645-0.218,7.726,4.542l5.516-4.786
				c0,0,3.08-3.55,8.243-0.452c5.163,3.098,6.535,1.722,8.794,0.269c2.258-1.451,19.126-14.313,20.291-15.847l-1.552,53.208H28.948
				L25.261,73.353z"/>
		</g>
	</g>
</g>
</svg>
