<?xml version="1.0" encoding="utf-8"?>
<!-- Generator: Adobe Illustrator 17.0.0, SVG Export Plug-In . SVG Version: 6.00 Build 0)  -->
<!DOCTYPE svg PUBLIC "-//W3C//DTD SVG 1.1//EN" "http://www.w3.org/Graphics/SVG/1.1/DTD/svg11.dtd">
<svg version="1.1" id="Layer_1" xmlns="http://www.w3.org/2000/svg" xmlns:xlink="http://www.w3.org/1999/xlink" x="0px" y="0px"
	 width="135px" height="135.001px" viewBox="0 0 135 135.001" enable-background="new 0 0 135 135.001" xml:space="preserve">
<g>
	<g>
		<g>
			<path fill="#010202" d="M32.031,101.153c-18.165-19.135-17.88-49.472,0.887-68.235C50.48,15.353,78.181,13.98,97.346,28.771
				l12.046-1.721l1.599-11.203C84.484-6.504,44.699-5.217,19.741,19.742c-26.018,26.018-26.312,68.145-0.92,94.549l1.641-11.485
				L32.031,101.153z"/>
		</g>
		<g>
			<path fill="#010202" d="M116.178,20.71l-1.64,11.485l-11.57,1.652c18.166,19.135,17.88,49.472-0.884,68.235
				c-17.565,17.563-45.265,18.938-64.431,4.147l-12.046,1.721l-1.6,11.202c26.508,22.352,66.292,21.065,91.249-3.896
				C141.277,89.242,141.571,47.116,116.178,20.71z"/>
		</g>
	</g>
	<g>
		<g>
			<path fill-rule="evenodd" clip-rule="evenodd" fill="#E5283C" d="M88.96,56.653c-0.733-0.172-1.613-0.378-2.769-0.649
				c0-1.587-0.462-3.666,0.154-5.351c0.447-1.219,0.482-2.319,0.544-3.477c0.091-1.7-0.467-2.188-2.17-2.19
				c-1.682-0.001-3.365-0.006-5.047-0.007c-1.557,0-2.121,0.518-2.089,2.06c0.027,1.305,0.085,2.529,0.599,3.864
				c0.56,1.45,0.129,3.284,0.129,4.941c-2.788,0.308-4.024,1.309-3.814,4.289c0.136,1.914,0.025,3.844,0.025,5.892
				c-2.411,0-4.633,0-6.829,0c-0.082,0.242-0.158,0.361-0.158,0.48c-0.01,5.13-0.019,10.259-0.002,15.389
				c0,0.159,0.258,0.316,0.354,0.426c0.057-0.169,0.108-0.335,0.163-0.502c0.379-2.415,1.567-4.561,3.277-6.151
				c0.274-0.278,0.569-0.532,0.896-0.75c1.783-1.33,3.994-2.118,6.388-2.118c5.905,0,10.692,4.788,10.692,10.693
				c0,0.009,0,0.018,0,0.026c0.023,0.118,0.048,0.235,0.073,0.354c0.033,0.149,0.119,0.285,0.18,0.427
				c0.28-0.456,0.355-0.899,0.355-1.344c0.004-6.21,0.042-12.42-0.023-18.629C89.862,61.777,90.439,59.144,88.96,56.653z"/>
		</g>
		<g>
			<path fill-rule="evenodd" clip-rule="evenodd" fill="#E5283C" d="M65.919,79.72c0.012-11.564,0.011-23.129,0.009-34.692
				c0-1.899-1.196-3.116-3.092-3.118c-6.646-0.007-13.291,0.006-19.934-0.002c-2.393-0.002-3.416,0.962-3.419,3.331
				c-0.004,10.96-0.002,21.921,0.002,32.88c0.001,1.985-0.02,3.971,0.045,5.954c0.015,0.418,0.283,0.897,0.575,1.224
				c1.339,1.498,2.973,0.647,4.602,0.704c-0.032-0.134-0.063-0.27-0.091-0.407c-0.518-1.496-0.356-3.399,0.244-5.182
				c1.324-4.428,5.427-7.656,10.285-7.656c5.251,0,9.619,3.771,10.55,8.753c0.018-0.003,0.035-0.007,0.052-0.009
				C65.807,80.906,65.918,80.313,65.919,79.72z M61.933,64.273c-6.084,0-12.222,0-18.449,0c0-6.1,0-12.236,0-18.474
				c6.208,0,12.278,0,18.449,0C61.933,51.953,61.933,58.055,61.933,64.273z"/>
		</g>
		<g>
			<path fill-rule="evenodd" clip-rule="evenodd" fill="#E8515D" d="M90.869,70.343c1.71,0.787,3.294,1.21,4.485,2.137
				c2.048,1.593,2.655,3.893,2.459,6.492c-0.259,3.401-3.615,6.128-6.944,6.31C90.869,80.44,90.869,75.601,90.869,70.343z"/>
		</g>
		<g>
			<path fill-rule="evenodd" clip-rule="evenodd" fill="#FFFFFF" d="M43.484,45.799c6.208,0,12.278,0,18.449,0
				c0,6.153,0,12.256,0,18.474c-6.084,0-12.222,0-18.449,0C43.484,58.173,43.484,52.037,43.484,45.799z"/>
		</g>
		<g>
			<circle fill-rule="evenodd" clip-rule="evenodd" fill="#E8515D" cx="55.145" cy="83.492" r="9.268"/>
		</g>
		<g>
			<circle fill-rule="evenodd" clip-rule="evenodd" fill="#FFFFFF" cx="55.145" cy="83.492" r="5.898"/>
		</g>
		<g>
			<circle fill-rule="evenodd" clip-rule="evenodd" fill="#E8515D" cx="78.611" cy="83.492" r="9.268"/>
		</g>
		<g>
			<circle fill-rule="evenodd" clip-rule="evenodd" fill="#FFFFFF" cx="78.611" cy="83.492" r="5.898"/>
		</g>
		<g>
			<defs>
				<path id="SVGID_1_" d="M88.96,56.653c-0.733-0.172-1.613-0.378-2.769-0.649c0-1.587-0.462-3.666,0.154-5.351
					c0.447-1.219,0.482-2.319,0.544-3.477c0.091-1.7-0.467-2.188-2.17-2.19c-1.682-0.001-3.365-0.006-5.047-0.007
					c-1.557,0-2.121,0.518-2.089,2.06c0.027,1.305,0.085,2.529,0.599,3.864c0.56,1.45,0.129,3.284,0.129,4.941
					c-2.788,0.308-4.024,1.309-3.814,4.289c0.136,1.914,0.025,3.844,0.025,5.892c-2.411,0-4.633,0-6.829,0
					c-0.082,0.242-0.158,0.361-0.158,0.48c-0.01,5.13-0.019,10.259-0.002,15.389c0,0.159,0.258,0.316,0.354,0.426
					c0.057-0.169,0.108-0.335,0.163-0.502c0.379-2.415,1.567-4.561,3.277-6.151c0.274-0.278,0.569-0.532,0.896-0.75
					c1.783-1.33,3.994-2.118,6.388-2.118c5.905,0,10.692,4.788,10.692,10.693c0,0.009,0,0.018,0,0.026
					c0.023,0.118,0.048,0.235,0.073,0.354c0.033,0.149,0.119,0.285,0.18,0.427c0.28-0.456,0.355-0.899,0.355-1.344
					c0.004-6.21,0.042-12.42-0.023-18.629C89.862,61.777,90.439,59.144,88.96,56.653z"/>
			</defs>
			<clipPath id="SVGID_2_">
				<use xlink:href="#SVGID_1_"  overflow="visible"/>
			</clipPath>
			<g clip-path="url(#SVGID_2_)">
				<path fill="#E8515D" d="M29.081,76.37c0,0,23.901-12.842,27.452-14.374c3.548-1.533,7.644-0.19,7.726,4.567l5.516-4.773
					c0,0,3.079-3.542,8.242-0.444c5.163,3.099,6.536,1.724,8.794,0.271c2.259-1.45,19.127-14.419,20.291-15.952L105.55,96.63H32.768
					L29.081,76.37z"/>
			</g>
		</g>
		<g>
			<defs>
				<path id="SVGID_3_" d="M65.919,79.72c0.012-11.564,0.011-23.129,0.009-34.692c0-1.899-1.196-3.116-3.092-3.118
					c-6.646-0.007-13.291,0.006-19.934-0.002c-2.393-0.002-3.416,0.962-3.419,3.331c-0.004,10.96-0.002,21.921,0.002,32.88
					c0.001,1.985-0.02,3.971,0.045,5.954c0.015,0.418,0.283,0.897,0.575,1.224c1.339,1.498,2.973,0.647,4.602,0.704
					c-0.032-0.134-0.063-0.27-0.091-0.407c-0.518-1.496-0.356-3.399,0.244-5.182c1.324-4.428,5.427-7.656,10.285-7.656
					c5.251,0,9.619,3.771,10.55,8.753c0.018-0.003,0.035-0.007,0.052-0.009C65.807,80.906,65.918,80.313,65.919,79.72z
					 M61.933,64.273c-6.084,0-12.222,0-18.449,0c0-6.1,0-12.236,0-18.474c6.208,0,12.278,0,18.449,0
					C61.933,51.953,61.933,58.055,61.933,64.273z"/>
			</defs>
			<clipPath id="SVGID_4_">
				<use xlink:href="#SVGID_3_"  overflow="visible"/>
			</clipPath>
			<g clip-path="url(#SVGID_4_)">
				<path fill="#E8515D" d="M29.081,76.37c0,0,23.901-12.842,27.452-14.374c3.548-1.533,7.644-0.19,7.726,4.567l5.516-4.773
					c0,0,3.079-3.542,8.242-0.444c5.163,3.099,6.536,1.724,8.794,0.271c2.259-1.45,19.127-14.419,20.291-15.952L105.55,96.63H32.768
					L29.081,76.37z"/>
			</g>
		</g>
	</g>
</g>
</svg>
