<?xml version="1.0" encoding="utf-8"?>
<!-- Generator: Adobe Illustrator 17.0.0, SVG Export Plug-In . SVG Version: 6.00 Build 0)  -->
<!DOCTYPE svg PUBLIC "-//W3C//DTD SVG 1.1//EN" "http://www.w3.org/Graphics/SVG/1.1/DTD/svg11.dtd">
<svg version="1.1" id="Layer_1" xmlns="http://www.w3.org/2000/svg" xmlns:xlink="http://www.w3.org/1999/xlink" x="0px" y="0px"
	 width="41px" height="41px" viewBox="0 0 41 41" enable-background="new 0 0 41 41" xml:space="preserve">
<g>
	<g>
		<path fill="#FFFFFF" d="M40.5,38.5c0,1.1-0.9,2-2,2h-36c-1.1,0-2-0.9-2-2v-36c0-1.1,0.9-2,2-2h36c1.1,0,2,0.9,2,2V38.5z"/>
		<path fill="none" stroke="#E5263B" stroke-miterlimit="10" d="M40.5,38.5c0,1.1-0.9,2-2,2h-36c-1.1,0-2-0.9-2-2v-36
			c0-1.1,0.9-2,2-2h36c1.1,0,2,0.9,2,2V38.5z"/>
	</g>
	<path fill="#E5263B" d="M33.833,12.229c-0.98,0.436-2.035,0.729-3.142,0.862c1.129-0.678,1.997-1.75,2.405-3.027
		c-1.058,0.627-2.228,1.082-3.475,1.328c-0.998-1.063-2.42-1.729-3.993-1.729c-3.021,0-5.471,2.45-5.471,5.471
		c0,0.43,0.048,0.847,0.142,1.247c-4.547-0.227-8.578-2.406-11.276-5.716c-0.472,0.808-0.741,1.748-0.741,2.75
		c0,1.898,0.966,3.573,2.434,4.554c-0.896-0.028-1.74-0.274-2.477-0.685c-0.001,0.023-0.001,0.047-0.001,0.069
		c0,2.65,1.887,4.862,4.389,5.364c-0.459,0.125-0.942,0.192-1.441,0.192c-0.352,0-0.694-0.034-1.029-0.099
		c0.696,2.174,2.717,3.756,5.111,3.8c-1.873,1.468-4.231,2.342-6.795,2.342c-0.441,0-0.877-0.025-1.305-0.076
		c2.421,1.552,5.297,2.458,8.386,2.458c10.063,0,15.566-8.337,15.566-15.566c0-0.237-0.005-0.473-0.016-0.708
		C32.172,14.291,33.1,13.327,33.833,12.229z"/>
</g>
</svg>
