<?xml version="1.0" encoding="utf-8"?>
<!-- Generator: Adobe Illustrator 17.0.0, SVG Export Plug-In . SVG Version: 6.00 Build 0)  -->
<!DOCTYPE svg PUBLIC "-//W3C//DTD SVG 1.1//EN" "http://www.w3.org/Graphics/SVG/1.1/DTD/svg11.dtd">
<svg version="1.1" id="Layer_1" xmlns="http://www.w3.org/2000/svg" xmlns:xlink="http://www.w3.org/1999/xlink" x="0px" y="0px"
	 width="135px" height="135.001px" viewBox="0 0 135 135.001" enable-background="new 0 0 135 135.001" xml:space="preserve">
<g>
	<g>
		<path fill="#E5283C" d="M91.808,90.466c0,0.643-0.522,1.164-1.165,1.164H44.973c-0.643,0-1.165-0.521-1.165-1.164V42.794
			c0-0.643,0.521-1.164,1.165-1.164h45.671c0.643,0,1.165,0.521,1.165,1.164V90.466z"/>
	</g>
	<g>
		<defs>
			<path id="SVGID_1_" d="M91.808,90.466c0,0.643-0.522,1.164-1.165,1.164H44.973c-0.643,0-1.165-0.521-1.165-1.164V42.794
				c0-0.643,0.521-1.164,1.165-1.164h45.671c0.643,0,1.165,0.521,1.165,1.164V90.466z"/>
		</defs>
		<clipPath id="SVGID_2_">
			<use xlink:href="#SVGID_1_"  overflow="visible"/>
		</clipPath>
		<g clip-path="url(#SVGID_2_)">
			<path fill="#E8515D" d="M39.808,69.909c0,0,11.851-6.452,15.399-7.985c3.551-1.533,7.54-0.161,7.621,4.597l5.464-4.758
				c0,0,3.052-3.534,8.214-0.437c5.162,3.098,6.788,1.728,9.046,0.275c2.259-1.451,9.256-6.13,10.256-7.663V96.63h-56V69.909z"/>
		</g>
	</g>
	<g>
		<path fill="#FFFFFF" d="M67.293,82.275c-8.428,0-15.284-6.856-15.284-15.284c0-8.428,6.856-15.284,15.284-15.284
			c8.428,0,15.284,6.856,15.284,15.284C82.577,75.418,75.721,82.275,67.293,82.275z M67.293,52.871
			c-7.785,0-14.12,6.334-14.12,14.119c0,7.785,6.334,14.12,14.12,14.12c7.786,0,14.12-6.335,14.12-14.12
			C81.413,59.205,75.079,52.871,67.293,52.871z"/>
	</g>
	<g>
		<circle fill="#FFFFFF" cx="67.293" cy="66.991" r="8.151"/>
	</g>
	<g>
		<circle fill="#FFFFFF" cx="84.47" cy="48.213" r="2.038"/>
	</g>
	<g>
		<g>
			<path fill="#010202" d="M32.031,101.153c-18.166-19.135-17.88-49.472,0.886-68.236c17.563-17.563,45.264-18.937,64.43-4.146
				l12.045-1.721l1.599-11.203C84.483-6.504,44.7-5.217,19.741,19.742c-26.017,26.018-26.312,68.145-0.92,94.549l1.641-11.485
				L32.031,101.153z"/>
		</g>
		<g>
			<path fill="#010202" d="M116.179,20.71l-1.64,11.485l-11.57,1.652c18.166,19.135,17.879,49.472-0.885,68.235
				c-17.564,17.563-45.264,18.938-64.431,4.147l-12.045,1.721l-1.6,11.202c26.508,22.352,66.292,21.065,91.249-3.896
				C141.277,89.242,141.571,47.116,116.179,20.71z"/>
		</g>
	</g>
</g>
</svg>
